<?xml version="1.0" encoding="UTF-8" standalone="no"?>
<!-- Creator: CorelDRAW -->
<svg
   xmlns:dc="http://purl.org/dc/elements/1.1/"
   xmlns:cc="http://creativecommons.org/ns#"
   xmlns:rdf="http://www.w3.org/1999/02/22-rdf-syntax-ns#"
   xmlns:svg="http://www.w3.org/2000/svg"
   xmlns="http://www.w3.org/2000/svg"
   xmlns:sodipodi="http://sodipodi.sourceforge.net/DTD/sodipodi-0.dtd"
   xmlns:inkscape="http://www.inkscape.org/namespaces/inkscape"
   xml:space="preserve"
   width="11in"
   height="8.5in"
   style="shape-rendering:geometricPrecision; text-rendering:geometricPrecision; image-rendering:optimizeQuality; fill-rule:evenodd; clip-rule:evenodd"
   viewBox="0 0 11 8.5"
   id="svg2047"
   sodipodi:version="0.32"
   inkscape:version="0.46"
   sodipodi:docname="behroze-gnu-button-0.svg"
   sodipodi:docbase="/media/STORAGE_01/Files_Design/Projects/GNU &amp; OSS"
   inkscape:output_extension="org.inkscape.output.svg.inkscape"><metadata
   id="metadata2080"><rdf:RDF><cc:Work
       rdf:about=""><dc:format>image/svg+xml</dc:format><dc:type
         rdf:resource="http://purl.org/dc/dcmitype/StillImage" /><cc:license
         rdf:resource="http://creativecommons.org/licenses/GPL/2.0/" /></cc:Work><cc:License
       rdf:about="http://creativecommons.org/licenses/GPL/2.0/"><cc:permits
         rdf:resource="http://web.resource.org/cc/Reproduction" /><cc:permits
         rdf:resource="http://web.resource.org/cc/Distribution" /><cc:requires
         rdf:resource="http://web.resource.org/cc/Notice" /><cc:permits
         rdf:resource="http://web.resource.org/cc/DerivativeWorks" /><cc:requires
         rdf:resource="http://web.resource.org/cc/ShareAlike" /><cc:requires
         rdf:resource="http://web.resource.org/cc/SourceCode" /></cc:License></rdf:RDF></metadata><sodipodi:namedview
   inkscape:window-height="865"
   inkscape:window-width="1452"
   inkscape:pageshadow="2"
   inkscape:pageopacity="0.0"
   guidetolerance="10.0"
   gridtolerance="10.0"
   objecttolerance="10.0"
   borderopacity="1.0"
   bordercolor="#666666"
   pagecolor="#ffffff"
   id="base"
   inkscape:zoom="48.153509"
   inkscape:cx="19.011358"
   inkscape:cy="737.3105"
   inkscape:window-x="27"
   inkscape:window-y="242"
   inkscape:current-layer="svg2047"
   showgrid="false"
   showguides="true"
   inkscape:guide-bbox="true" />
 <defs
   id="defs2049"><inkscape:perspective
   sodipodi:type="inkscape:persp3d"
   inkscape:vp_x="0 : 382.5 : 1"
   inkscape:vp_y="0 : 1000 : 0"
   inkscape:vp_z="990 : 382.5 : 1"
   inkscape:persp3d-origin="495 : 255 : 1"
   id="perspective2480" />
  <style
   type="text/css"
   id="style2051">

    .fil4 {fill:black}
    .fil3 {fill:#666666}
    .fil2 {fill:#002940}
    .fil0 {fill:#5C788F}
    .fil6 {fill:#D4D6D9}
    .fil7 {fill:#ED6E00}
    .fil1 {fill:white}
    .fil5 {fill:#002940;fill-rule:nonzero}
    .fil8 {fill:#052638;fill-rule:nonzero}

  </style>
 </defs>
 <g
   id="Layer_x0020_1"
   inkscape:export-xdpi="142.99977"
   inkscape:export-ydpi="142.99977"
   transform="matrix(0.1587299,0,0,0.1777774,-0.2708119,-0.4511731)">
  <metadata
   id="CorelCorpID_0Corel-Layer" />
  <path
   class="fil0"
   d="M 2.07982,2.85209 L 6.05599,2.85209 L 6.0550294,2.8552081 C 6.4885574,3.9977781 5.4077894,4.5509281 5.8635054,5.8513381 L 5.8670329,5.852094 L 2.0798129,5.852094 C 1.9330999,5.852094 1.8130409,5.732047 1.8130409,5.585322 L 1.8130409,3.118862 C 1.8130409,2.972138 1.9330879,2.85209 2.0798129,2.85209 L 2.07982,2.85209 z"
   id="path2055"
   style="fill:#5c788f" />
  <path
   class="fil1"
   d="M 2.34235,4.99398 C 2.3796374,4.963295 2.4196295,4.9258383 2.443137,4.877311 C 2.459885,4.8427323 2.4656291,4.8078189 2.4511764,4.7755 C 2.4954914,4.8454685 2.4269992,4.930354 2.4113929,4.998268 C 2.3958063,5.09152 2.4431016,5.137264 2.4850661,5.189103 C 2.4615818,5.1448747 2.4633496,5.05554 2.5108929,4.993871 C 2.6361059,4.988619 2.7157749,4.9285482 2.7589479,4.779162 C 2.7657825,4.7555006 2.7889833,4.641154 2.8325148,4.678753 C 2.8688573,4.7101349 2.7882865,4.839946 2.7260538,4.902466 C 2.7905971,4.8842652 2.8515338,4.8704896 2.8967468,4.8168518 C 2.7945928,4.9488948 2.7958298,5.0934898 2.8855342,5.2166388 C 2.854298,5.0262488 2.9683728,4.8745208 3.1643692,4.8789458 C 3.1239283,4.7712808 3.2582196,4.6695168 3.2655702,4.7519258 C 3.2705662,4.8696778 3.3168694,4.9621538 3.345708,5.0025168 C 3.3043537,4.7396978 3.3900623,4.3681628 3.637027,4.2301628 C 3.5819168,4.0961938 3.6034837,4.0138128 3.6701057,3.8860018 C 3.5539797,3.8642223 3.4497237,3.8378955 3.3408147,3.8007892 C 3.2797202,3.7799742 3.2148227,3.7464231 3.1512277,3.731116 C 3.1034009,3.7209585 3.0566253,3.7151672 3.0076887,3.7148207 C 3.0607911,3.6660333 3.0763147,3.5871317 3.0766769,3.5180377 C 3.0738698,3.3662507 3.0804918,3.3718287 3.2501729,3.3272387 C 3.1345159,3.3140655 3.0528579,3.2973293 2.9849249,3.4043017 C 2.9486729,3.468219 2.9575036,3.5396087 2.9270273,3.6040497 C 2.8612281,3.5942032 2.8092953,3.5338095 2.7446333,3.5134434 C 2.64959,3.4835379 2.5597433,3.5415654 2.4964283,3.6058017 C 2.4703417,3.6322702 2.447196,3.6624316 2.4098968,3.6386324 C 2.2759048,3.5531324 2.3651212,3.3896084 2.4726842,3.3242704 L 2.5772712,3.2681208 C 2.5245625,3.2739791 2.4715432,3.2747074 2.4214882,3.2927153 C 2.2578822,3.3602389 2.1050712,3.5754633 2.2741182,3.7154243 C 2.223567,3.7708928 2.2093859,3.8557703 2.1580162,3.9171413 C 2.1497839,3.9269759 2.1451501,3.9286019 2.1474099,3.9426216 C 2.1696658,4.0099681 2.1576619,4.0107436 2.1489099,4.0437906 C 2.1361107,4.0920937 2.1095044,4.1392355 2.0952367,4.1864446 C 2.0602367,4.3022316 2.0398233,4.4224096 2.020469,4.5416096 C 2.0084651,4.6155702 1.9547682,4.8123576 2.0239965,4.8367236 C 2.0258745,4.8897708 2.1035634,4.9154913 2.1470835,4.8896685 C 2.1933118,4.9103811 2.2253197,4.9359835 2.2677485,4.9191764 C 2.2802209,4.9133654 2.2995438,4.8925504 2.3172603,4.8739284 C 2.3317642,4.8586843 2.3604296,4.8029245 2.3750123,4.8586882 C 2.3855438,4.8989402 2.3647013,4.9572669 2.3423509,4.9939832 L 2.34235,4.99398 z"
   id="path2057"
   style="fill:#ffffff" />
  <path
   class="fil2"
   d="M 2.20783,4.74041 C 2.1886804,4.7868824 2.1438418,4.7815478 2.138704,4.7359691 C 2.1355701,4.7081896 2.1598772,4.7109888 2.1573536,4.7321738 C 2.1540938,4.7594888 2.1753575,4.7820439 2.20783,4.74041 L 2.20783,4.74041 z M 2.2223733,4.596347 C 2.1449481,4.6078313 2.1056093,4.6587761 2.0867863,4.72576 C 2.1567233,4.604315 2.2403533,4.6810789 2.1824871,4.7392206 C 2.2247666,4.7255907 2.237617,4.653634 2.1855422,4.6373666 C 2.1855422,4.6373666 2.1607391,4.626469 2.2223729,4.5963469 L 2.2223733,4.596347 z M 2.6418733,4.546158 C 2.7168497,4.5035202 2.8041683,4.5323706 2.8479043,4.5908155 C 2.7300383,4.5935675 2.7041843,4.7256775 2.6885773,4.7745675 C 2.6876127,4.6890911 2.6662781,4.6548355 2.6127742,4.6224295 C 2.6401758,4.7391105 2.6087033,4.7998505 2.5373333,4.8518945 C 2.5585538,4.7896583 2.5534199,4.7166345 2.4928372,4.6783785 C 2.5343608,4.6523273 2.5467309,4.5464175 2.6418722,4.5461585 L 2.6418733,4.546158 z M 2.6411804,4.5426777 C 2.564767,4.5315911 2.5231294,4.5950202 2.4703064,4.6369454 C 2.4386253,4.662095 2.3837907,4.6878312 2.3312154,4.6806934 C 2.3071445,4.7961654 2.2354595,4.8624734 2.1537824,4.8778474 L 2.228873,4.9047372 C 2.2814124,4.9053356 2.304184,4.8592923 2.329168,4.8109459 C 2.4029711,4.6681389 2.489699,4.6895759 2.486054,4.8367176 C 2.4838965,4.9239499 2.38203,4.9916786 2.4556721,5.1285206 C 2.4262233,4.9067136 2.6133141,4.9706706 2.6412231,4.7746856 C 2.6599475,4.8923706 2.6094593,4.9266146 2.5347541,4.9733706 C 2.7946041,4.8996147 2.7016401,4.6368276 2.8296481,4.6359576 C 2.8797072,4.635619 2.8924355,4.7592646 2.7790064,4.8677966 C 2.8601836,4.8371864 2.9058134,4.7877454 2.9222974,4.6972216 C 2.9228171,4.6603358 2.9743131,4.7423003 2.94901,4.7742216 C 2.848782,4.9006626 2.81027,5.0328236 2.8719864,5.1573516 C 2.8386518,4.9844536 3.0024664,4.8519266 3.1330924,4.8585486 C 3.1291947,4.6871866 3.2952694,4.6573246 3.2915964,4.7347846 C 3.2881318,4.8078161 3.3002499,4.8525876 3.3201436,4.9229066 C 3.2951554,4.6854816 3.3842184,4.3383756 3.6121676,4.2215006 C 3.5774786,4.1385006 3.5590298,4.0526936 3.6403605,3.9004616 C 3.5706833,3.8881978 3.5083215,3.8738789 3.4528135,3.8527726 C 3.4550694,3.8598592 3.462404,3.8731978 3.4653292,3.8803474 C 3.425782,3.8552254 3.2719792,3.7950049 3.2230302,3.7888435 C 3.2290696,3.7850443 3.2471129,3.786371 3.2527507,3.781249 C 3.1597704,3.7493396 3.0694637,3.7271309 2.9595187,3.736686 C 2.9888573,3.7496781 3.0033967,3.7647017 3.0128415,3.778812 C 3.0680502,3.8613041 2.8571215,3.930178 3.0969281,3.907253 C 3.3071961,3.8871467 3.4765741,3.9730916 3.4287191,4.200627 C 3.3139281,4.330808 3.2918731,4.452454 3.2819041,4.623958 C 3.0923171,4.5803005 3.1159281,4.819836 2.9609751,4.849844 C 3.0624591,4.682155 2.9330814,4.474982 2.7662471,4.478509 C 2.8260306,4.3883082 2.8229243,4.270214 2.7528022,4.150017 C 2.8259794,4.339911 2.7579045,4.464411 2.6411802,4.542678 L 2.6411804,4.5426777 z M 2.1206724,4.3359297 C 2.1446921,4.2258077 2.1848693,4.1643317 2.2191015,4.1115947 C 2.2423574,4.0757719 2.2260582,4.0060947 2.2168062,3.9504177 C 2.2630345,3.9764098 2.2802117,3.7647607 2.4382822,3.7427757 C 2.467735,3.7338544 2.5238098,3.7698426 2.5775342,3.7306615 C 2.5769003,3.7248505 2.5834043,3.7083741 2.5900775,3.701382 C 2.656298,3.6319607 2.7111285,3.671571 2.7622945,3.7000788 C 2.9272155,3.7919213 3.0532355,3.7166418 3.0569485,3.5246728 C 3.0582792,3.4560941 3.0271414,3.3622238 3.1435194,3.3349088 C 3.0877123,3.3266884 2.9870704,3.3718143 2.9711804,3.5095468 C 2.9492198,3.6998898 2.8569714,3.6737948 2.8168024,3.6665228 C 2.8621449,3.6695858 2.9025583,3.6579087 2.9233224,3.6234047 C 2.8087204,3.612826 2.7255824,3.3917787 2.4727834,3.6580504 C 2.451811,3.680137 2.38887,3.6698535 2.3807558,3.6707512 C 2.3527755,3.6713694 2.3310983,3.6850425 2.308118,3.7068418 C 2.3236928,3.6688733 2.355992,3.6536331 2.3879881,3.6474835 C 2.2700671,3.5586095 2.3223582,3.3773495 2.478244,3.2989365 C 2.3821731,3.305905 2.209512,3.4401925 2.218299,3.5870975 C 2.2205116,3.6240542 2.2450825,3.6637747 2.280177,3.6947315 C 2.2851928,3.6991528 2.2949014,3.7075032 2.298555,3.7173929 C 2.2597282,3.7524598 2.253681,3.7927433 2.2324015,3.8405349 C 2.2201968,3.8679404 2.1892991,3.9118223 2.1665235,3.9374483 C 2.1662794,3.9385704 2.1937597,3.9624877 2.175429,4.0442313 C 2.170681,4.0534479 2.1569526,4.0758612 2.1517321,4.0878888 C 2.1025471,4.2012468 2.0712912,4.3498538 2.0399051,4.5447868 C 2.0319169,4.5944128 1.9971059,4.7698338 2.0140665,4.7968538 C 2.0187319,4.804283 2.0263263,4.8203499 2.045161,4.8278774 C 2.0345508,4.8548302 2.0714051,4.8718026 2.1099641,4.876775 C 2.1951295,4.8487868 2.2664401,4.8052474 2.2898541,4.729145 C 2.2489998,4.794208 2.1580311,4.847239 2.1131141,4.84083 C 2.1037519,4.8394915 2.0827795,4.8370466 2.0836298,4.8041725 C 2.0439369,4.7876095 2.0457046,4.7299245 2.0599329,4.6838105 C 2.0752794,4.6340979 2.115866,4.5783185 2.1596967,4.5516375 C 2.1304408,4.5544486 2.1035825,4.5651532 2.0851337,4.5878777 C 2.1056061,4.4886179 2.1718187,4.3788537 2.2175427,4.3326377 C 2.2702041,4.2794133 2.2246923,4.2114287 2.2160585,4.1720037 C 2.1920585,4.198673 2.1466215,4.265362 2.1206727,4.3359287 L 2.1206724,4.3359297 z M 2.6027004,3.8353787 C 2.6547713,3.7154067 2.9318814,3.7495244 2.9214834,3.7889417 C 2.8954362,3.8877094 2.8379913,3.9927997 2.7418614,3.9740597 C 2.6859559,3.9631621 2.6544716,3.8871817 2.5551604,3.9099731 C 2.6402864,3.8742723 2.6717394,3.9109062 2.7358294,3.9395991 C 2.79992,3.9682881 2.8632384,3.9002684 2.8882234,3.8297491 C 2.903062,3.7878554 2.7895147,3.7369145 2.7348804,3.7888436 C 2.6893961,3.8320798 2.7039946,3.8534853 2.6839276,3.8498987 L 2.6026993,3.835379 L 2.6027004,3.8353787 z M 2.3821804,4.9402887 C 2.4151843,4.902084 2.4395072,4.8572454 2.4353615,4.8097057 C 2.4302749,4.7513632 2.3759402,4.7640876 2.3528261,4.8118317 C 2.4074048,4.8035207 2.4137513,4.8774498 2.3821804,4.9402887 L 2.3821804,4.9402887 z"
   id="path2059"
   style="fill:#002940" />
  <path
   class="fil3"
   d="M 2.28204,4.12361 C 2.3349061,4.018165 2.391449,3.965866 2.455973,3.938346 C 2.4152447,3.9777318 2.3839297,4.0346098 2.3742998,4.074334 C 2.3509061,4.0809324 2.3110518,4.1001844 2.28204,4.1236096 L 2.28204,4.12361 z"
   id="path2061"
   style="fill:#666666" />
  <path
   class="fil4"
   d="M 2.49833,3.79128 C 2.332054,3.8472328 2.339881,3.945764 2.342204,3.983004 C 2.3184717,4.0101182 2.2821843,4.0686654 2.2647276,4.113386 C 2.2611055,4.065012 2.2723969,3.829028 2.4983296,3.79128 L 2.49833,3.79128 z"
   id="path2063"
   style="fill:#000000" />
  <path
   class="fil1"
   d="M 3.49455,4.79295 L 3.4882272,4.7905957 L 3.4820028,4.7878437 L 3.4758925,4.7846665 L 3.4698925,4.7810445 L 3.4640224,4.7769657 L 3.4583098,4.7724264 L 3.4527823,4.7673949 L 3.4474398,4.7618555 L 3.4423256,4.7557964 L 3.4374634,4.7492177 L 3.4328807,4.7420838 L 3.4285854,4.734383 L 3.424613,4.7261193 L 3.4209949,4.7172767 L 3.4177587,4.7078397 L 3.414924,4.6977964 L 3.4125146,4.6871507 L 3.4105579,4.6758869 L 3.4090894,4.6639932 L 3.4081169,4.6514696 L 3.407672,4.6383003 L 3.4077783,4.6244893 L 3.4084673,4.6100208 L 3.4097469,4.5948909 L 3.4116484,4.5790878 L 3.4141878,4.5626114 L 3.4176957,4.5438752 L 3.4216602,4.5259343 L 3.4260736,4.5087768 L 3.4309161,4.4924028 L 3.4361839,4.4767965 L 3.4418571,4.4619579 L 3.447924,4.4478713 L 3.4543571,4.4345327 L 3.4611602,4.4219225 L 3.468302,4.4100406 L 3.4757744,4.3988634 L 3.4835539,4.3883831 L 3.4916327,4.37858 L 3.499991,4.3694383 L 3.508613,4.3609422 L 3.517491,4.3530721 L 3.5266366,4.3457926 L 3.5360264,4.3390879 L 3.5456642,4.3329383 L 3.55555,4.3273241 L 3.5657154,4.3222138 L 3.5761406,4.3175957 L 3.5868532,4.3134501 L 3.5978571,4.3097729 L 3.609176,4.3065367 L 3.620798,4.3037493 L 3.6327389,4.3014028 L 3.6449948,4.2994894 L 3.6575657,4.2980012 L 3.6704397,4.2969461 L 3.6836287,4.2963162 L 3.6972941,4.2961036 L 3.7018099,4.2961233 L 3.7064477,4.2961745 L 3.7110303,4.296265 L 3.7155461,4.296391 L 3.7200067,4.2965485 L 3.7243965,4.2967453 L 3.7287154,4.2969776 L 3.7329752,4.2972453 L 3.7371878,4.2975485 L 3.7413217,4.2978831 L 3.7453689,4.2982493 L 3.7493689,4.2986587 L 3.7533177,4.2990957 L 3.7571721,4.2995721 L 3.7609555,4.3000721 L 3.7646996,4.3006193 L 3.7683807,4.3011942 L 3.7719595,4.3017965 L 3.7754792,4.3024343 L 3.7789358,4.3031075 L 3.7823335,4.3038083 L 3.7856524,4.3045445 L 3.7889004,4.3053083 L 3.7920776,4.3061075 L 3.7951957,4.3069343 L 3.7982311,4.3077926 L 3.8011957,4.3086745 L 3.8040933,4.3095957 L 3.806928,4.3105406 L 3.8096721,4.3115091 L 3.8123611,4.312517 L 3.8433296,4.3247178 L 3.9323611,4.1124458 L 3.9120225,4.1048316 L 3.9081563,4.1034615 L 3.9041248,4.1021033 L 3.8999319,4.1007647 L 3.8955461,4.0994261 L 3.890987,4.0981072 L 3.886235,4.0967962 L 3.8813177,4.0955206 L 3.8762311,4.0942568 L 3.8709477,4.0930127 L 3.8654831,4.0918001 L 3.859865,4.090623 L 3.8540579,4.0894655 L 3.8480658,4.0883434 L 3.8419004,4.0872607 L 3.8355618,4.0862214 L 3.82905,4.0852135 L 3.8223453,4.0842529 L 3.8154752,4.0833395 L 3.808424,4.0824812 L 3.8012154,4.0816702 L 3.7938177,4.0809143 L 3.7862429,4.0802174 L 3.7785067,4.0795875 L 3.7706012,4.0790127 L 3.7625185,4.0785127 L 3.7542626,4.0780757 L 3.7458374,4.0777174 L 3.7372508,4.07743 L 3.7284831,4.0772253 L 3.7195579,4.0770993 L 3.7102665,4.077056 L 3.684546,4.0774773 L 3.6586169,4.0787607 L 3.6327271,4.0809104 L 3.6069082,4.0839379 L 3.5812153,4.0878434 L 3.5556759,4.0926387 L 3.5303373,4.0983277 L 3.505231,4.10493 L 3.4804239,4.11243 L 3.4559357,4.1208592 L 3.4318294,4.1302096 L 3.4081325,4.1404891 L 3.384912,4.1517017 L 3.3621994,4.1638513 L 3.3400419,4.1769419 L 3.3184828,4.1909813 L 3.2975812,4.2059498 L 3.2773686,4.221875 L 3.2578922,4.2387411 L 3.2391993,4.2565561 L 3.2213292,4.2753081 L 3.2043174,4.2950089 L 3.1882032,4.3156506 L 3.17303,4.3372372 L 3.158841,4.3597726 L 3.1456599,4.383249 L 3.1335339,4.4076703 L 3.1224867,4.4330443 L 3.1125694,4.4593711 L 3.1037978,4.4866546 L 3.096219,4.5148948 L 3.0898805,4.544009 L 3.0873057,4.5581507 L 3.0850852,4.5721153 L 3.0832112,4.5859933 L 3.0816797,4.5997728 L 3.0805064,4.6134382 L 3.0796797,4.6269854 L 3.0792072,4.6404145 L 3.0790891,4.6537176 L 3.0793371,4.6668751 L 3.0799316,4.6798869 L 3.0808962,4.6927491 L 3.0822151,4.7054578 L 3.083908,4.7179972 L 3.0859671,4.7303594 L 3.0883962,4.7425366 L 3.0911915,4.7545366 L 3.0943805,4.7663358 L 3.0979316,4.7779264 L 3.1018765,4.7893044 L 3.1061875,4.8004658 L 3.1109041,4.8114028 L 3.1159986,4.8220997 L 3.1214868,4.8325525 L 3.1273726,4.8427651 L 3.1336679,4.852706 L 3.1403568,4.8623792 L 3.1474553,4.8717729 L 3.1549553,4.8808871 L 3.1628805,4.889706 L 3.1712151,4.8982139 L 3.1799632,4.9064029 L 3.1889789,4.914143 L 3.1956324,4.9195997 L 3.2025301,4.9249501 L 3.2096364,4.930143 L 3.2169553,4.9351902 L 3.2244986,4.94008 L 3.2322584,4.9448162 L 3.2402269,4.9493792 L 3.2484159,4.9537887 L 3.2568411,4.9580328 L 3.2654789,4.9621076 L 3.274349,4.9660131 L 3.2834317,4.9697532 L 3.2927624,4.9733202 L 3.3023175,4.9767099 L 3.312097,4.9799225 L 3.3221127,4.9829658 L 3.3323725,4.985828 L 3.3428607,4.9885091 L 3.3535851,4.9910091 L 3.3645457,4.993332 L 3.3757583,4.9954698 L 3.3872032,4.9974304 L 3.3988961,4.999206 L 3.410837,5.0008005 L 3.4230339,5.002202 L 3.4354788,5.0034225 L 3.4481757,5.004454 L 3.4611206,5.0053083 L 3.4743371,5.0059658 L 3.4878135,5.0064383 L 3.5015497,5.0067217 L 3.5155418,5.0068201 L 3.524404,5.006765 L 3.5333765,5.0066154 L 3.5424631,5.0063635 L 3.5516324,5.0060249 L 3.5609001,5.0055957 L 3.5702229,5.0050879 L 3.579593,5.0044934 L 3.5890064,5.003828 L 3.5984513,5.0030839 L 3.6078804,5.0022768 L 3.6173056,5.0014028 L 3.6266993,5.0004698 L 3.6360497,4.9994776 L 3.6453332,4.9984343 L 3.6545458,4.9973398 L 3.6636639,4.9961981 L 3.6726836,4.9950091 L 3.6815654,4.9937847 L 3.6903056,4.9925249 L 3.6988962,4.9912296 L 3.7073135,4.9899028 L 3.71553,4.9885564 L 3.7235418,4.9871823 L 3.7313607,4.9857926 L 3.7389355,4.9843792 L 3.7462584,4.982954 L 3.7533174,4.981517 L 3.7601127,4.9800721 L 3.7666324,4.9786115 L 3.7728568,4.9771469 L 3.7787741,4.9756666 L 3.8016087,4.969643 L 3.8895181,4.455045 L 3.5122071,4.455045 L 3.4776717,4.657202 L 3.5618489,4.657202 L 3.5375851,4.799241 L 3.5375142,4.799241 L 3.5342308,4.7992488 L 3.5271757,4.7990717 L 3.5205379,4.7985599 L 3.5139513,4.7977016 L 3.5074198,4.796489 L 3.5009552,4.7949103 L 3.4945497,4.7929496 L 3.49455,4.79295 z M 4.264672,4.600974 L 4.2671956,4.6093834 L 4.269735,4.6177181 L 4.2722862,4.6259464 L 4.2748374,4.6340567 L 4.2773807,4.6420252 L 4.27992,4.649848 L 4.2824397,4.6574976 L 4.2849437,4.6649622 L 4.2874161,4.672222 L 4.2898649,4.6792614 L 4.2922665,4.6860527 L 4.294613,4.6925449 L 4.40503,4.9988129 L 4.689916,4.9988129 L 4.84605,4.0848559 L 4.563223,4.0848559 L 4.5356717,4.2461389 L 4.5330536,4.2617452 L 4.5305458,4.277383 L 4.5281363,4.293005 L 4.5258292,4.3085877 L 4.5236166,4.3241153 L 4.5215025,4.3395759 L 4.5194788,4.354942 L 4.5175497,4.3702018 L 4.5157032,4.3853199 L 4.5139434,4.4003081 L 4.5122662,4.4151231 L 4.5106718,4.4297491 L 4.5091521,4.4441743 L 4.5077111,4.458379 L 4.5063371,4.4723396 L 4.5050379,4.4860483 L 4.5038017,4.4994656 L 4.5026324,4.5125955 L 4.5018371,4.5217805 L 4.5003686,4.5172057 L 4.4977899,4.5092057 L 4.495219,4.5012726 L 4.4926639,4.4934223 L 4.4901166,4.485686 L 4.4876088,4.4780758 L 4.4851245,4.4706034 L 4.4826875,4.4632963 L 4.480282,4.4561545 L 4.4779395,4.4492175 L 4.4756481,4.4424892 L 4.4734277,4.4359931 L 4.4712741,4.4297333 L 4.4691954,4.423749 L 4.4672033,4.4180482 L 4.4653214,4.4126978 L 4.3518174,4.0848548 L 4.0667584,4.0848548 L 3.9106244,4.9988118 L 4.1934514,4.9988118 L 4.2224081,4.8293078 L 4.2251128,4.8132881 L 4.2277348,4.7974259 L 4.2302742,4.7817251 L 4.2327309,4.7662094 L 4.235097,4.7508787 L 4.2374002,4.7357448 L 4.2396167,4.7208117 L 4.2417545,4.7060912 L 4.2438215,4.6915873 L 4.2458096,4.6773117 L 4.247727,4.6632723 L 4.2495813,4.649477 L 4.2513529,4.6359298 L 4.2530695,4.6226424 L 4.2547112,4.6096227 L 4.2562978,4.5968786 L 4.2578096,4.5844062 L 4.2584002,4.579485 L 4.2596836,4.5839771 L 4.262164,4.5924968 L 4.2646718,4.6009732 L 4.264672,4.600974 z M 4.982385,4.084856 L 4.8898811,4.626352 L 4.8866094,4.6469898 L 4.8839323,4.6672969 L 4.8818811,4.687167 L 4.8804835,4.7065961 L 4.8797512,4.7255685 L 4.8797315,4.7440842 L 4.8804283,4.7621236 L 4.8818811,4.7796787 L 4.8841055,4.7967378 L 4.8871409,4.813289 L 4.891011,4.8293166 L 4.8957512,4.8448166 L 4.901385,4.8597654 L 4.9079559,4.8741512 L 4.9154835,4.8879465 L 4.924011,4.9011394 L 4.9335504,4.9136945 L 4.944141,4.9255882 L 4.9557945,4.9367969 L 4.9685504,4.947289 L 4.982389,4.9570252 L 4.9973221,4.9659898 L 5.0133654,4.9741551 L 5.030515,4.9815016 L 5.0487473,4.9880095 L 5.0680819,4.993663 L 5.0884992,4.9984622 L 5.1100189,5.0024032 L 5.1326331,5.0054661 L 5.1563536,5.007663 L 5.1812119,5.0089858 L 5.2072276,5.0094268 L 5.2311292,5.0090055 L 5.2544402,5.0077457 L 5.2771607,5.0056433 L 5.2992985,5.0027102 L 5.3208379,4.9989386 L 5.3417749,4.9943402 L 5.3620899,4.9889071 L 5.3817868,4.9826591 L 5.4008419,4.9755921 L 5.4192317,4.9677299 L 5.4369443,4.9590882 L 5.4539679,4.9496866 L 5.4702907,4.9395331 L 5.4859009,4.928663 L 5.5007907,4.9170961 L 5.5149797,4.9048481 L 5.5284443,4.8919387 L 5.5412081,4.8783954 L 5.5532711,4.86423 L 5.5646491,4.8494623 L 5.5753538,4.8340962 L 5.5853892,4.8181592 L 5.5947711,4.8016474 L 5.6035231,4.7845765 L 5.6116294,4.7669505 L 5.6191215,4.748793 L 5.6260034,4.7300961 L 5.6322868,4.7108756 L 5.6379758,4.6911315 L 5.6430821,4.6708795 L 5.6476057,4.6501197 L 5.6515467,4.628974 L 5.7444995,4.084856 L 5.4273145,4.084856 L 5.3281806,4.665151 L 5.3261766,4.6762022 L 5.3240664,4.6866038 L 5.3218459,4.6964306 L 5.3195192,4.7056983 L 5.3170822,4.7144149 L 5.3145585,4.722596 L 5.3119444,4.7302416 L 5.3092515,4.7373637 L 5.3064877,4.7439739 L 5.3036688,4.7500881 L 5.3007987,4.7557062 L 5.297905,4.760844 L 5.2949916,4.7655054 L 5.2920782,4.769718 L 5.2891688,4.7734897 L 5.2863144,4.7768283 L 5.2835073,4.7797574 L 5.2807554,4.7823204 L 5.2780743,4.7845408 L 5.2754798,4.7864424 L 5.2729483,4.7880645 L 5.2704719,4.7894582 L 5.2680152,4.7906471 L 5.2655743,4.791659 L 5.2630782,4.792529 L 5.2605034,4.7932731 L 5.2578026,4.793903 L 5.2549837,4.7944227 L 5.2520073,4.7948243 L 5.2488459,4.7951117 L 5.2455152,4.7952889 L 5.2421609,4.7953479 L 5.2391294,4.795281 L 5.2363262,4.7950842 L 5.2336648,4.7947613 L 5.2311333,4.7943086 L 5.2287121,4.7937298 L 5.2263853,4.7930172 L 5.2241373,4.792159 L 5.2219404,4.7911432 L 5.2197632,4.7899306 L 5.2176176,4.7885133 L 5.2154876,4.7868637 L 5.2133774,4.7849424 L 5.2112987,4.7827298 L 5.2092672,4.7802062 L 5.2072908,4.777344 L 5.2053971,4.7741235 L 5.2035979,4.7705212 L 5.2019286,4.7665369 L 5.2003932,4.7621511 L 5.1990231,4.7573597 L 5.1978262,4.7521432 L 5.1968302,4.7465093 L 5.1960388,4.7404385 L 5.1954758,4.7339267 L 5.1951412,4.7269621 L 5.1950624,4.7195605 L 5.1952435,4.7116865 L 5.1956963,4.7033519 L 5.1964286,4.6945408 L 5.1974522,4.6852613 L 5.1987829,4.6754897 L 5.2004365,4.6651472 L 5.2995664,4.0848562 L 4.9823854,4.0848562 L 4.982385,4.084856 z"
   id="path2065"
   style="fill:#ffffff" />
  <path
   class="fil5"
   d="M 3.86077,4.47429 L 3.534376,4.47429 L 3.5064154,4.637947 L 3.5905965,4.637947 L 3.5601949,4.8159 C 3.5511634,4.8184945 3.5408524,4.8184945 3.5305453,4.8184945 C 3.4412185,4.8184945 3.3572183,4.7470575 3.3887263,4.5626125 C 3.4244507,4.3534905 3.5440533,4.2768525 3.7003803,4.2768525 C 3.7536323,4.2768525 3.7971913,4.2833486 3.8293293,4.2963368 L 3.901786,4.1235848 C 3.8679317,4.1105927 3.801656,4.0963053 3.707176,4.0963053 C 3.442621,4.0963053 3.17494,4.2352893 3.115259,4.5444273 C 3.0867472,4.6912033 3.1156566,4.8236913 3.20907,4.9003253 C 3.2751133,4.9561836 3.372822,4.9875694 3.518842,4.9875694 C 3.6081727,4.9875694 3.726192,4.970471 3.778452,4.9561836 L 3.8607709,4.4742896 L 3.86077,4.47429 z M 4.171282,4.979562 L 4.1969474,4.829322 C 4.2261994,4.658082 4.2406718,4.513039 4.248349,4.43792 L 4.251786,4.43792 C 4.2613411,4.5026483 4.2948884,4.618034 4.3194592,4.685361 L 4.4255262,4.979562 L 4.6677502,4.979562 L 4.8173052,4.104101 L 4.5853922,4.104101 L 4.5611324,4.246113 C 4.5328411,4.411723 4.5227072,4.581664 4.5173726,4.653101 L 4.5139356,4.653101 C 4.4962742,4.5855577 4.4601246,4.475369 4.4404277,4.419735 L 4.3311477,4.104101 L 4.0889277,4.104101 L 3.9393727,4.979562 L 4.1712817,4.979562 L 4.171282,4.979562 z M 5.004554,4.104101 L 4.9153532,4.626258 C 4.8778532,4.845774 4.9390776,4.990167 5.2105032,4.990167 C 5.4561602,4.990167 5.5877202,4.853569 5.6261092,4.628856 L 5.7157509,4.1041 L 5.4494789,4.1041 L 5.3536246,4.665226 C 5.3325419,4.78862 5.2885931,4.8146 5.2387746,4.8146 C 5.1906801,4.8146 5.1552155,4.7808283 5.1749636,4.665226 L 5.2708219,4.1041 L 5.0045539,4.1041 L 5.004554,4.104101 z"
   id="path2067"
   style="fill:#002940;fill-rule:nonzero" />
  <path
   class="fil6"
   d="M 6.09313,2.85209 L 8.54628,2.85209 C 8.693004,2.85209 8.813052,2.972145 8.813052,3.118862 L 8.813052,5.585322 C 8.813052,5.732035 8.692993,5.852094 8.54628,5.852094 L 6.12834,5.852094 L 6.1298361,5.8513381 C 5.5782101,4.5922481 6.6091711,3.9581581 6.0944345,2.8552081 L 6.0931234,2.85209 L 6.09313,2.85209 z"
   id="path2069"
   style="fill:#d4d6d9" />
  <path
   class="fil7"
   d="M 5.9132,5.2684 C 5.9344047,5.469491 5.9882866,5.665691 6.065287,5.852097 L 5.929389,5.852097 C 5.827582,5.580097 5.792176,5.29316 5.819637,5.002148 C 5.8716094,4.644518 6.010743,4.320935 6.120149,3.979368 L 6.1266175,3.9572341 C 6.0915781,4.1082461 6.0474206,4.2568211 6.0082115,4.4067461 C 5.9334871,4.6925021 5.8860025,4.9738331 5.9131997,5.2683961 L 5.9132,5.2684 z"
   id="path2071"
   style="fill:#ed6e00" />
  <path
   class="fil1"
   d="M 7.20012,3.5525 L 7.1981318,3.5580787 L 7.1961554,3.5636299 L 7.1941751,3.5691772 L 7.1921987,3.5747205 L 7.19112,3.5777559 L 7.1911672,3.5757756 L 7.1913208,3.5700197 L 7.1914586,3.5642677 L 7.1916003,3.5585472 L 7.191742,3.5528346 L 7.1918838,3.5471378 L 7.1920767,3.5391811 L 7.1924507,3.5246024 L 7.1965531,3.3160044 L 7.0280571,3.3160044 L 7.0464587,3.8552604 L 7.2202577,3.8552604 L 7.2873994,3.6810004 L 7.2898718,3.6746461 L 7.2923324,3.6682681 L 7.2947458,3.6619374 L 7.2971277,3.6556461 L 7.2994624,3.6494138 L 7.3017616,3.6432288 L 7.3040254,3.637087 L 7.3062616,3.6309729 L 7.3084584,3.6249177 L 7.3098718,3.6209886 L 7.309797,3.625276 L 7.3097143,3.630839 L 7.3096395,3.6364099 L 7.3095884,3.6419729 L 7.3095411,3.6475319 L 7.3095135,3.6530791 L 7.3094939,3.6586185 L 7.3094899,3.6640988 L 7.3086632,3.8552598 L 7.4811792,3.8552598 L 7.7131992,3.3160038 L 7.5352542,3.3160038 L 7.4654038,3.5176058 L 7.4635219,3.5230428 L 7.4616439,3.5284759 L 7.459762,3.5339365 L 7.4578919,3.5393775 L 7.456014,3.5448342 L 7.45414,3.5503027 L 7.4522699,3.5557672 L 7.4513841,3.5583578 L 7.4515967,3.5530428 L 7.4517975,3.5477239 L 7.4520101,3.5423893 L 7.4522226,3.5370113 L 7.4524392,3.5315546 L 7.4598132,3.3160036 L 7.2850572,3.3160036 L 7.2121478,3.5188736 L 7.2101242,3.5245114 L 7.2081163,3.5301256 L 7.2061084,3.5357359 L 7.2021124,3.5469248 L 7.2001203,3.5524997 L 7.20012,3.5525 z M 8.028573,3.5063701 L 7.851581,3.5063701 L 7.8600219,3.4634095 L 8.0467389,3.4634095 L 8.0752074,3.3160035 L 7.7210814,3.3160035 L 7.6186644,3.8552595 L 7.9830384,3.8552595 L 8.011503,3.7078505 L 7.813775,3.7078505 L 7.8244837,3.6530395 L 8.0000547,3.6530395 L 8.0285744,3.5063705 L 8.028573,3.5063701 z M 7.013193,4.5332501 L 7.0150237,4.5381477 L 7.0166969,4.5441005 L 7.0181615,4.5511596 L 7.0193662,4.5593525 L 7.0203308,4.5690375 L 7.0214253,4.5806714 L 7.0225198,4.5918013 L 7.0235906,4.6023564 L 7.0246536,4.6123367 L 7.0256891,4.6217383 L 7.0267206,4.6305926 L 7.0277363,4.6388761 L 7.0287403,4.6466005 L 7.0297245,4.6537698 L 7.0307009,4.6604115 L 7.0316694,4.6665178 L 7.032634,4.6721084 L 7.0335946,4.6772068 L 7.034567,4.6818367 L 7.035571,4.6860572 L 7.040567,4.7041438 L 7.215622,4.7041438 L 7.2031535,4.6747383 L 7.202622,4.6732698 L 7.2020236,4.6713525 L 7.2013858,4.6690375 L 7.2007244,4.6663485 L 7.200059,4.6633367 L 7.1993898,4.6600493 L 7.1987362,4.6565021 L 7.1980827,4.6526989 L 7.1974409,4.6486911 L 7.1968071,4.6444785 L 7.196185,4.6400966 L 7.1955709,4.6355533 L 7.1949764,4.6308643 L 7.1943819,4.6260296 L 7.1937992,4.6210847 L 7.1932165,4.6160296 L 7.1926417,4.6109076 L 7.1920787,4.6057068 L 7.1915118,4.600443 L 7.1909488,4.5951359 L 7.1903858,4.5898013 L 7.1898189,4.5844666 L 7.1892638,4.5791202 L 7.188689,4.5737658 L 7.1881181,4.5684548 L 7.1875354,4.5631832 L 7.1869567,4.5579666 L 7.1863543,4.5527934 L 7.185752,4.5477068 L 7.1851299,4.5427225 L 7.1845079,4.5378485 L 7.1834055,4.5296202 L 7.1820945,4.5214469 L 7.1805669,4.513502 L 7.1787992,4.5057855 L 7.1767677,4.4982934 L 7.1744527,4.4910453 L 7.1718189,4.4840335 L 7.1688346,4.4772619 L 7.1654567,4.4707422 L 7.1616693,4.4645099 L 7.1574331,4.4585965 L 7.1562165,4.4571556 L 7.1586614,4.4559745 L 7.1645551,4.4529272 L 7.1703149,4.4497146 L 7.1759724,4.4463328 L 7.1814724,4.4427737 L 7.1868268,4.4390572 L 7.1920236,4.4351595 L 7.1970827,4.4310808 L 7.2019567,4.4268091 L 7.2066575,4.4223721 L 7.2111693,4.4177383 L 7.2155079,4.4129075 L 7.2196338,4.4078682 L 7.2235354,4.4026595 L 7.2272086,4.3972658 L 7.2306693,4.3916713 L 7.233874,4.3858839 L 7.2368307,4.3799312 L 7.2395315,4.3737894 L 7.2419803,4.3674587 L 7.2441456,4.360943 L 7.2460393,4.3542737 L 7.2476456,4.347439 L 7.2489724,4.3404351 L 7.25,4.3332619 L 7.250748,4.3259469 L 7.2511929,4.3184587 L 7.2513504,4.3106792 L 7.2509842,4.2999469 L 7.2499134,4.2894745 L 7.2481456,4.2793958 L 7.2457126,4.2697265 L 7.242626,4.2604785 L 7.2389488,4.2516832 L 7.2346929,4.2433289 L 7.2298976,4.2354391 L 7.2246141,4.2280454 L 7.2189015,4.2211241 L 7.2127756,4.2146832 L 7.2063031,4.2087029 L 7.1995078,4.2031989 L 7.1924448,4.1981517 L 7.1851417,4.1935454 L 7.1779685,4.1895572 L 7.173933,4.1873919 L 7.1697204,4.1852777 L 7.1654212,4.1832738 L 7.161063,4.1813801 L 7.1566771,4.1796163 L 7.1522598,4.177947 L 7.1477795,4.176384 L 7.1432637,4.1749076 L 7.1386929,4.1735415 L 7.1341141,4.1722619 L 7.1295275,4.1710887 L 7.1249134,4.1699785 L 7.1202401,4.1689549 L 7.1155708,4.16801 L 7.1108937,4.1671478 L 7.1062008,4.1663486 L 7.1014763,4.1656241 L 7.0967716,4.1649706 L 7.0920669,4.16438 L 7.0873582,4.1638446 L 7.0826456,4.1633722 L 7.0779645,4.1629509 L 7.0732795,4.1625808 L 7.0686023,4.162258 L 7.063933,4.1619863 L 7.0592913,4.1617619 L 7.054689,4.1615769 L 7.0501023,4.1614273 L 7.0455354,4.161321 L 7.0410118,4.1612423 L 7.0365394,4.1612029 L 7.0320905,4.1611832 L 7.0268071,4.1612029 L 7.021559,4.1612501 L 7.0163268,4.1613328 L 7.0110984,4.1614312 L 7.005874,4.161573 L 7.0006929,4.1617344 L 6.9955157,4.1619273 L 6.9903622,4.1621438 L 6.9852283,4.1623997 L 6.9801457,4.1626753 L 6.9750984,4.1629824 L 6.9700866,4.1633092 L 6.965122,4.1636714 L 6.9602008,4.1640454 L 6.9553307,4.1644588 L 6.9505197,4.16488 L 6.9457244,4.1653446 L 6.9410197,4.1658328 L 6.9363858,4.1663407 L 6.9318031,4.1668682 L 6.9272953,4.1674273 L 6.922874,4.1680021 L 6.9185079,4.1686005 L 6.9142205,4.1692226 L 6.9100039,4.1698761 L 6.9058937,4.1705454 L 6.901874,4.1712344 L 6.8979212,4.171947 L 6.894059,4.1726911 L 6.8903189,4.1734509 L 6.8866496,4.1742344 L 6.8704488,4.1779115 L 6.7701378,4.7041435 L 6.9360668,4.7041435 L 6.9716259,4.5159975 L 6.9777755,4.5159975 L 6.983933,4.5161432 L 6.9891771,4.5165802 L 6.9937007,4.5172889 L 6.9975078,4.5182377 L 7.0006416,4.5193755 L 7.0032164,4.5206826 L 7.0054172,4.5221944 L 7.0074212,4.5240212 L 7.0093503,4.5263361 L 7.0112834,4.5293558 L 7.0131928,4.5332495 L 7.013193,4.5332501 z M 7.0538269,4.3028171 L 7.0582836,4.3040927 L 7.0623269,4.3056006 L 7.0659214,4.3072974 L 7.0690631,4.3091596 L 7.0717403,4.3111399 L 7.0739686,4.3132108 L 7.0757994,4.3153801 L 7.0772954,4.3176911 L 7.0784805,4.320195 L 7.079386,4.3230139 L 7.0799805,4.3262817 L 7.0802049,4.3300927 L 7.079882,4.3358171 L 7.0789647,4.3411675 L 7.0775001,4.3461439 L 7.0755159,4.3507856 L 7.073008,4.3551439 L 7.0699883,4.3592462 L 7.0664293,4.3630966 L 7.0623545,4.3666714 L 7.0577324,4.3699509 L 7.0525789,4.3729273 L 7.0469253,4.3755336 L 7.0407954,4.3777423 L 7.0342009,4.3795179 L 7.0271891,4.380825 L 7.0197954,4.381632 L 7.0117206,4.3819234 L 6.997071,4.3819234 L 7.0127049,4.3012502 L 7.0165789,4.3009392 L 7.0214372,4.3006793 L 7.0268467,4.3005022 L 7.0326577,4.300447 L 7.0384608,4.3005966 L 7.0438703,4.3010533 L 7.0490041,4.3017935 L 7.053827,4.3028171 L 7.0538269,4.3028171 z M 7.3155279,4.1648881 L 7.2605712,4.4538491 L 7.2597129,4.4586326 L 7.2589019,4.4634082 L 7.2581342,4.4681916 L 7.2574098,4.4729593 L 7.2567247,4.4777349 L 7.2560909,4.4825145 L 7.2555043,4.4872704 L 7.2549728,4.4920026 L 7.2544885,4.4966995 L 7.2540594,4.5013963 L 7.2536932,4.5060538 L 7.2533901,4.5106483 L 7.2531421,4.5152034 L 7.2529688,4.5197192 L 7.2528507,4.5241916 L 7.2528232,4.5287034 L 7.2530161,4.5392585 L 7.2536066,4.5496758 L 7.2546027,4.5598333 L 7.2560003,4.569727 L 7.2577956,4.579357 L 7.2600122,4.5887231 L 7.2626303,4.5978097 L 7.2656696,4.6066168 L 7.2691106,4.6151247 L 7.2729728,4.6233373 L 7.2772444,4.6312349 L 7.2819334,4.6388294 L 7.287024,4.6460774 L 7.2925161,4.6529869 L 7.2984019,4.6595302 L 7.3046618,4.6657113 L 7.3112877,4.6715105 L 7.3182799,4.6769396 L 7.3256145,4.6819711 L 7.3332838,4.6866129 L 7.3412602,4.6908609 L 7.3495476,4.6947231 L 7.3581381,4.6981916 L 7.36702,4.7012782 L 7.3761775,4.703979 L 7.3856224,4.7062939 L 7.3953153,4.708231 L 7.4052877,4.7098058 L 7.415516,4.7109987 L 7.4260121,4.7118372 L 7.4367601,4.7123057 L 7.4477089,4.712416 L 7.4620317,4.7121758 L 7.4759726,4.7114514 L 7.4894687,4.7102428 L 7.5025474,4.7085459 L 7.5151931,4.7063412 L 7.5274372,4.7036483 L 7.539264,4.7004396 L 7.5506971,4.6967231 L 7.5617089,4.692479 L 7.5723113,4.687731 L 7.5825082,4.6824593 L 7.5922917,4.6766758 L 7.6016539,4.6703845 L 7.6106027,4.6635932 L 7.6191303,4.6563058 L 7.6272444,4.648542 L 7.6349334,4.6402979 L 7.642209,4.6316168 L 7.649087,4.6224869 L 7.6555791,4.6129239 L 7.6616854,4.6029357 L 7.6674334,4.5925381 L 7.6728271,4.5817271 L 7.6778941,4.5705106 L 7.6826303,4.5588846 L 7.6870633,4.5468728 L 7.6911972,4.5344594 L 7.6950673,4.5216523 L 7.6986696,4.5084358 L 7.70202,4.4948256 L 7.7051342,4.4808138 L 7.7080122,4.4664949 L 7.7651185,4.1648889 L 7.5977565,4.1648889 L 7.5406148,4.4654679 L 7.5376187,4.4801726 L 7.5343589,4.4933773 L 7.5307998,4.5053143 L 7.5269691,4.5160072 L 7.5228825,4.52546 L 7.5185754,4.5337277 L 7.5140872,4.5408458 L 7.5094533,4.5468733 L 7.5046777,4.5519048 L 7.4997525,4.5560584 L 7.4946147,4.5594521 L 7.4891895,4.5621726 L 7.483351,4.5642867 L 7.4769888,4.5658261 L 7.4700281,4.566767 L 7.462477,4.5670899 L 7.4563628,4.5668182 L 7.4509258,4.5660663 L 7.4461108,4.5649009 L 7.4418825,4.5634009 L 7.4381502,4.5615978 L 7.4348352,4.559523 L 7.4318943,4.5571962 L 7.429288,4.5546293 L 7.4269691,4.5517985 L 7.4249258,4.5487041 L 7.4231581,4.5453694 L 7.4216777,4.5418064 L 7.4204809,4.5380269 L 7.4195911,4.534082 L 7.4190163,4.5300269 L 7.4187565,4.5258103 L 7.4187762,4.5224639 L 7.418847,4.5186174 L 7.4189573,4.5148418 L 7.4191187,4.5111253 L 7.4193155,4.5074481 L 7.4195557,4.5038615 L 7.4198274,4.5003379 L 7.4201423,4.4968733 L 7.4204809,4.4934796 L 7.420851,4.4901922 L 7.4212447,4.4869914 L 7.4216777,4.4838615 L 7.4221226,4.4808182 L 7.4225872,4.4779009 L 7.4230754,4.4750741 L 7.4235911,4.4722907 L 7.4821856,4.1648887 L 7.3155286,4.1648887 L 7.3155279,4.1648881 z M 8.0713189,4.3681561 L 8.0702559,4.3747112 L 8.0692362,4.3811758 L 8.0682323,4.3875616 L 8.0672717,4.3938963 L 8.0663346,4.4001522 L 8.0657992,4.403849 L 8.0653622,4.4021758 L 8.0638228,4.3963608 L 8.0622638,4.3905301 L 8.0606811,4.3846719 L 8.0590748,4.3787821 L 8.0574409,4.372853 L 8.0557874,4.3669081 L 8.0541102,4.3609238 L 8.0524094,4.3548923 L 8.0506772,4.3488294 L 8.0489291,4.3427231 L 8.0471496,4.3365853 L 8.0453425,4.330349 L 7.9958661,4.164888 L 7.8140201,4.164888 L 7.7124101,4.704144 L 7.8701501,4.704144 L 7.8991501,4.550046 L 7.9006029,4.5422508 L 7.9020399,4.5344948 L 7.9034651,4.5267626 L 7.9048785,4.5190736 L 7.9062722,4.5114043 L 7.9076462,4.5038019 L 7.9090045,4.4962429 L 7.910347,4.488735 L 7.9116619,4.4812822 L 7.9129572,4.4738964 L 7.9142249,4.4665893 L 7.9154808,4.4593492 L 7.9167053,4.4521799 L 7.91791,4.4451051 L 7.9190832,4.4381051 L 7.9199218,4.4330893 L 7.9210714,4.4373059 L 7.9226305,4.442924 L 7.9242013,4.4485578 L 7.9258076,4.4542271 L 7.9274179,4.4599043 L 7.9290596,4.4656445 L 7.9307289,4.4714397 L 7.9324257,4.4772823 L 7.9341383,4.4831799 L 7.9358864,4.4891523 L 7.937658,4.4951996 L 7.9394572,4.5013295 L 7.941284,4.507546 L 7.9431462,4.5138649 L 7.9450438,4.5203019 L 7.9470123,4.5269712 L 8.00178,4.7041442 L 8.165701,4.7041442 L 8.267315,4.1648882 L 8.108823,4.1648882 L 8.0783387,4.3272192 L 8.077075,4.3343058 L 8.0758624,4.3412429 L 8.0746813,4.3480932 L 8.0735316,4.354857 L 8.0724096,4.3615381 L 8.071319,4.3681562 L 8.0713189,4.3681561 z M 7.0461889,5.4114261 L 7.0425944,5.4115206 L 7.0389999,5.4115481 L 7.028181,5.4111938 L 7.0180786,5.4101702 L 7.0085274,5.4084733 L 6.9995865,5.406119 L 6.9912755,5.4031111 L 6.9836298,5.3994733 L 6.9766534,5.3952174 L 6.9703424,5.3903316 L 6.9646534,5.3847686 L 6.9595944,5.3784852 L 6.9551574,5.3713828 L 6.95137,5.3633749 L 6.9482637,5.3543356 L 6.9459329,5.3442136 L 6.9444644,5.3329262 L 6.9439448,5.3201703 L 6.9440196,5.314623 L 6.944244,5.3088947 L 6.944618,5.3032726 L 6.9451456,5.297749 L 6.945807,5.2923041 L 6.9466141,5.2869734 L 6.9475511,5.2817293 L 6.9486298,5.2765876 L 6.9498345,5.2715246 L 6.9511613,5.2665718 L 6.9526101,5.2617372 L 6.9541928,5.2569852 L 6.9558857,5.2523277 L 6.9576928,5.2477923 L 6.9596141,5.2433435 L 6.9616574,5.2389892 L 6.9637912,5.2347411 L 6.9660353,5.2306073 L 6.9683739,5.2265758 L 6.9708188,5.2226466 L 6.9733621,5.2188159 L 6.975992,5.2151073 L 6.9787164,5.2114931 L 6.9815353,5.2079892 L 6.9844369,5.2045836 L 6.9874172,5.2013041 L 6.9904723,5.1981348 L 6.9936219,5.1950718 L 6.9968306,5.1921191 L 7.0001219,5.1892884 L 7.0034763,5.1865679 L 7.0065274,5.1842529 L 7.0111652,5.1812647 L 7.016307,5.1782805 L 7.0216849,5.1754616 L 7.027307,5.172812 L 7.0331416,5.1703435 L 7.0391967,5.168064 L 7.0454605,5.1659813 L 7.0519566,5.1640954 L 7.0586456,5.1624065 L 7.0655235,5.160934 L 7.0725904,5.1596702 L 7.0798582,5.1586269 L 7.0872873,5.1578041 L 7.0948975,5.1572175 L 7.1026652,5.1568592 L 7.1105983,5.156745 L 7.1181534,5.1568592 L 7.1256377,5.1572017 L 7.1330235,5.1577411 L 7.1402991,5.1584813 L 7.1474369,5.1593868 L 7.1544015,5.1604576 L 7.1611849,5.1616545 L 7.1677597,5.1629734 L 7.1740708,5.1643828 L 7.1801101,5.165871 L 7.1858345,5.1674104 L 7.1912322,5.1689931 L 7.1962715,5.1705876 L 7.2009212,5.1721742 L 7.205118,5.1737214 L 7.2285668,5.1830679 L 7.2784802,5.0393119 L 7.2594723,5.0308001 L 7.256807,5.0296859 L 7.2539959,5.0285914 L 7.2510786,5.0275284 L 7.2480117,5.0264733 L 7.2447991,5.02543 L 7.2414526,5.0244064 L 7.2379802,5.0234024 L 7.2343345,5.0223985 L 7.2305589,5.0214261 L 7.2266455,5.0204615 L 7.2225944,5.0195284 L 7.2183975,5.0186072 L 7.214055,5.0177174 L 7.2095904,5.0168513 L 7.2049959,5.0160205 L 7.2002636,5.0152095 L 7.1953936,5.0144379 L 7.1903936,5.0137016 L 7.1852912,5.0130127 L 7.180051,5.0123513 L 7.1746888,5.011741 L 7.1692164,5.011178 L 7.1636298,5.0106662 L 7.1579329,5.0102016 L 7.1521219,5.0097883 L 7.1461849,5.0094261 L 7.1401652,5.0091387 L 7.1340392,5.0088985 L 7.127803,5.0087253 L 7.1214684,5.008619 L 7.1150156,5.0085914 L 7.1063306,5.0086662 L 7.0976652,5.0088906 L 7.0890432,5.0092725 L 7.0805117,5.0098119 L 7.0720314,5.010493 L 7.0636219,5.0113355 L 7.0552794,5.0123237 L 7.0470196,5.0134654 L 7.0388266,5.0147528 L 7.0307085,5.0161938 L 7.0226613,5.0177804 L 7.0147204,5.0195166 L 7.0068345,5.0213945 L 6.9990353,5.0234379 L 6.9913267,5.025619 L 6.9837204,5.0279536 L 6.9762007,5.0304182 L 6.9687676,5.0330402 L 6.9614172,5.035804 L 6.9541849,5.0387213 L 6.9470432,5.0417764 L 6.9400038,5.0449812 L 6.9330629,5.0483316 L 6.9262479,5.0518276 L 6.9195353,5.0554536 L 6.912933,5.0592371 L 6.9064369,5.0631544 L 6.9000668,5.0672252 L 6.8938227,5.0714221 L 6.8876849,5.0757764 L 6.881681,5.0802686 L 6.8757322,5.0849536 L 6.8693463,5.0903591 L 6.863181,5.0958749 L 6.8571652,5.101556 L 6.8513149,5.1073985 L 6.845618,5.1133906 L 6.8400865,5.119556 L 6.8347204,5.1258709 L 6.8295353,5.1323355 L 6.8245117,5.1389497 L 6.8196692,5.1457292 L 6.8150038,5.1526465 L 6.8105235,5.1597252 L 6.8062282,5.1669457 L 6.8021259,5.1743158 L 6.7982164,5.1818276 L 6.7945196,5.1894733 L 6.7910117,5.1972489 L 6.7877086,5.205178 L 6.7846141,5.2132331 L 6.7817361,5.221426 L 6.779059,5.229741 L 6.7766062,5.2382016 L 6.7743739,5.2467843 L 6.7723739,5.2554811 L 6.7705905,5.2642922 L 6.7690353,5.2732449 L 6.7677125,5.2823079 L 6.7666259,5.2914811 L 6.7657716,5.3007804 L 6.7651653,5.3101898 L 6.7647952,5.3197016 L 6.764681,5.3293276 L 6.7647598,5.336304 L 6.7650196,5.3432055 L 6.7654409,5.3500205 L 6.7660314,5.3567567 L 6.7667834,5.3634063 L 6.7677007,5.3699811 L 6.7687794,5.3764418 L 6.7700078,5.3828118 L 6.7713857,5.3890992 L 6.772929,5.3952882 L 6.7746141,5.4013748 L 6.7764527,5.4073748 L 6.778429,5.4132567 L 6.780555,5.4190402 L 6.7828149,5.4247134 L 6.7852204,5.4302803 L 6.7877479,5.4357292 L 6.7904212,5.4410756 L 6.7932164,5.4463 L 6.7961495,5.4514181 L 6.7991968,5.4563985 L 6.8023739,5.4612646 L 6.8056692,5.4660087 L 6.8090865,5.4706229 L 6.8126062,5.4751071 L 6.8162598,5.4794732 L 6.8200117,5.4836937 L 6.8238739,5.4877803 L 6.8278306,5.4917252 L 6.8319094,5.4955402 L 6.8360747,5.4992055 L 6.8403503,5.502737 L 6.844866,5.5062252 L 6.8494212,5.5095717 L 6.854059,5.5127961 L 6.8587794,5.5159142 L 6.8635786,5.5189142 L 6.8684723,5.5218158 L 6.873433,5.5245913 L 6.8784842,5.5272724 L 6.8836062,5.5298236 L 6.8887952,5.5322724 L 6.8940747,5.534611 L 6.899433,5.5368394 L 6.9048503,5.5389496 L 6.9103385,5.5409536 L 6.9158897,5.5428433 L 6.9215353,5.5446347 L 6.9272401,5.5463039 L 6.9329999,5.547863 L 6.9388188,5.5493118 L 6.9447243,5.5506583 L 6.9506849,5.5518906 L 6.9567086,5.5530205 L 6.9627952,5.5540284 L 6.9689448,5.5549417 L 6.9751456,5.555737 L 6.9814212,5.5564339 L 6.987744,5.5570165 L 6.9941338,5.5574969 L 7.0005708,5.557863 L 7.0070629,5.5581307 L 7.013618,5.5582882 L 7.0202283,5.5583473 L 7.0266416,5.5583 L 7.0330196,5.5581543 L 7.0393661,5.5579221 L 7.0457007,5.557611 L 7.051992,5.5572095 L 7.0582401,5.556737 L 7.0644527,5.5561898 L 7.0706417,5.5555756 L 7.0767795,5.5548827 L 7.0828582,5.5541307 L 7.0888739,5.5533197 L 7.09487,5.5524536 L 7.1007755,5.5515244 L 7.106622,5.5505638 L 7.1124173,5.5495402 L 7.1181417,5.5484811 L 7.1237913,5.5473748 L 7.1293621,5.546237 L 7.1348346,5.5450638 L 7.1402362,5.5438709 L 7.145559,5.5426425 L 7.1507834,5.5413984 L 7.1559173,5.5401307 L 7.1609763,5.5388472 L 7.1659173,5.5375402 L 7.1707362,5.5362409 L 7.1754488,5.5349299 L 7.1800708,5.5336228 L 7.1845787,5.5323039 L 7.1889606,5.5309968 L 7.1932125,5.5296937 L 7.2087322,5.5248709 L 7.2674015,5.2189619 L 7.0364365,5.2189619 L 7.0084365,5.3589619 L 7.07609,5.3589619 L 7.0665625,5.409206 L 7.065157,5.4094973 L 7.0630546,5.4098792 L 7.0607672,5.4102257 L 7.0582672,5.4105485 L 7.0555625,5.4108359 L 7.0526688,5.4110839 L 7.0495546,5.4112768 L 7.0461885,5.4114264 L 7.0461889,5.4114261 z M 7.6101929,5.2104301 L 7.6091023,5.2170482 L 7.6080394,5.2236033 L 7.6070197,5.2300679 L 7.6060157,5.2364537 L 7.6050551,5.2427884 L 7.6041181,5.2490443 L 7.6035827,5.2527372 L 7.6031457,5.251064 L 7.6016063,5.245249 L 7.6000472,5.2394183 L 7.5984645,5.23356 L 7.5968582,5.2276703 L 7.5952244,5.2217411 L 7.5935708,5.2157963 L 7.5918937,5.209812 L 7.5901929,5.2037805 L 7.5884606,5.1977175 L 7.5867126,5.1916112 L 7.584933,5.1854734 L 7.583126,5.1792372 L 7.5336496,5.0137802 L 7.3518036,5.0137802 L 7.2501936,5.5530322 L 7.4079336,5.5530322 L 7.4369336,5.3989382 L 7.4383863,5.3911429 L 7.4398233,5.383387 L 7.4412485,5.3756547 L 7.4426619,5.3679658 L 7.4440556,5.3602965 L 7.4454296,5.3526941 L 7.4467879,5.345135 L 7.4481304,5.3376272 L 7.4494454,5.3301744 L 7.4507407,5.3227886 L 7.4520084,5.3154815 L 7.4532643,5.3082413 L 7.4544887,5.301072 L 7.4556934,5.2939972 L 7.4568667,5.2869972 L 7.4577052,5.2819815 L 7.4588548,5.2861941 L 7.4604139,5.2918122 L 7.4619848,5.2974461 L 7.4635911,5.3031154 L 7.4652013,5.3087925 L 7.466843,5.3145327 L 7.4685123,5.320328 L 7.4702092,5.3261705 L 7.4719218,5.3320681 L 7.4736698,5.3380406 L 7.4754415,5.3440878 L 7.4772407,5.3502177 L 7.4790674,5.3564343 L 7.4809296,5.3627532 L 7.4828273,5.3691902 L 7.4847958,5.3758595 L 7.5395635,5.5530325 L 7.7034845,5.5530325 L 7.8050985,5.0137805 L 7.6466065,5.0137805 L 7.6161222,5.1761075 L 7.6148584,5.1831941 L 7.6136458,5.1901311 L 7.6124647,5.1969815 L 7.6113151,5.2037492 L 7.610193,5.2104303 L 7.6101929,5.2104301 z M 7.8540509,5.0137801 L 7.7990942,5.3027371 L 7.7982359,5.3075206 L 7.7974249,5.3122962 L 7.7966572,5.3170796 L 7.7959328,5.3218473 L 7.7952477,5.3266229 L 7.7946139,5.3314025 L 7.7940273,5.3361584 L 7.7934958,5.3408906 L 7.7930115,5.3455875 L 7.7925824,5.3502843 L 7.7922162,5.3549418 L 7.7919131,5.3595403 L 7.7916651,5.3640954 L 7.7914918,5.3686111 L 7.7913737,5.3730836 L 7.7913462,5.3775954 L 7.7915391,5.3881505 L 7.7921296,5.3985678 L 7.7931257,5.4087253 L 7.7945233,5.418619 L 7.7963186,5.4282489 L 7.7985352,5.437615 L 7.8011533,5.4467056 L 7.8041926,5.4555087 L 7.8076336,5.4640127 L 7.8114958,5.4722253 L 7.8157674,5.4801229 L 7.8204564,5.4877174 L 7.825547,5.4949654 L 7.8310391,5.5018749 L 7.8369249,5.5084182 L 7.8431848,5.5145993 L 7.8498107,5.5203985 L 7.8568029,5.5258276 L 7.8641336,5.5308552 L 7.8718029,5.5355048 L 7.8797832,5.5397528 L 7.8880706,5.543615 L 7.8966611,5.5470835 L 7.905543,5.5501701 L 7.9147005,5.5528709 L 7.9241454,5.5551859 L 7.9338383,5.5571229 L 7.9438107,5.5586977 L 7.954039,5.5598906 L 7.9645351,5.5607292 L 7.9752831,5.5611977 L 7.9862319,5.5613079 L 8.0005547,5.5610678 L 8.0144956,5.5603434 L 8.0279917,5.5591347 L 8.0410704,5.5574379 L 8.0537161,5.5552331 L 8.0659602,5.5525402 L 8.077787,5.5493316 L 8.0892201,5.545615 L 8.1002319,5.5413709 L 8.1108382,5.5366229 L 8.1210311,5.5313434 L 8.1308146,5.5255638 L 8.1401768,5.5192725 L 8.1491256,5.5124812 L 8.1576532,5.5051938 L 8.1657673,5.49743 L 8.1734563,5.4891859 L 8.1807319,5.4805048 L 8.1876099,5.4713749 L 8.194102,5.4618119 L 8.2002083,5.4518237 L 8.2059563,5.4414261 L 8.21135,5.4306151 L 8.2164169,5.4193986 L 8.2211532,5.4077726 L 8.2255862,5.3957608 L 8.2297201,5.3833474 L 8.2335902,5.3705403 L 8.2371925,5.3573238 L 8.2405429,5.3437136 L 8.2436571,5.3297018 L 8.246535,5.3153829 L 8.3036413,5.0137809 L 8.1362793,5.0137809 L 8.0791376,5.3143599 L 8.0761416,5.3290646 L 8.0728817,5.3422693 L 8.0693227,5.3542063 L 8.065492,5.3648953 L 8.0614014,5.3743559 L 8.0570983,5.3826197 L 8.0526101,5.3897378 L 8.0479762,5.3957654 L 8.0432006,5.4007969 L 8.0382754,5.4049504 L 8.0331376,5.4083441 L 8.0277124,5.4110646 L 8.0218739,5.4131788 L 8.0155117,5.4147181 L 8.008551,5.4156591 L 8.0009998,5.4159819 L 7.9948857,5.4157103 L 7.9894487,5.4149583 L 7.9846337,5.4137929 L 7.9804054,5.4122929 L 7.9766731,5.4104898 L 7.9733581,5.408415 L 7.9704172,5.4060882 L 7.9678148,5.4035213 L 7.9654959,5.4006866 L 7.9634487,5.3975921 L 7.961681,5.3942575 L 7.9602006,5.3906945 L 7.9590038,5.386915 L 7.958114,5.3829662 L 7.9575392,5.3789189 L 7.9572794,5.3747024 L 7.9572991,5.3713559 L 7.9573699,5.3675095 L 7.9574802,5.3637339 L 7.9576416,5.3600173 L 7.9578384,5.3563402 L 7.9580786,5.3527535 L 7.9583503,5.3492299 L 7.9586652,5.3457654 L 7.9590038,5.3423717 L 7.9593739,5.3390843 L 7.9597676,5.3358835 L 7.9602006,5.3327535 L 7.9606455,5.3297102 L 7.9611101,5.3267929 L 7.9615983,5.3239661 L 7.962114,5.3211827 L 8.0207085,5.0137807 L 7.8540515,5.0137807 L 7.8540509,5.0137801 z"
   id="path2073"
   style="fill:#ffffff" />
  <path
   class="fil8"
   d="M 7.20653,3.83526 L 7.2687505,3.67378 C 7.2954159,3.6056304 7.3146757,3.54563 7.3339355,3.489339 L 7.3354158,3.489339 C 7.3317111,3.5456303 7.3294906,3.60563 7.3294906,3.66415 L 7.3287505,3.83526 L 7.4680105,3.83526 L 7.6828215,3.336004 L 7.5494905,3.336004 L 7.4843015,3.52415 C 7.4643015,3.5819295 7.4443015,3.641185 7.4265298,3.696744 L 7.4250416,3.696744 C 7.4280101,3.6411849 7.4302305,3.588598 7.432451,3.530819 L 7.4391164,3.336004 L 7.2991204,3.336004 L 7.2309708,3.52563 C 7.2094905,3.58563 7.1887503,3.64415 7.1687503,3.700445 L 7.16727,3.700445 C 7.1694904,3.6493387 7.1709707,3.58341 7.172455,3.52415 L 7.1761558,3.336004 L 7.0487498,3.336004 L 7.0657892,3.83526 L 7.2065292,3.83526 L 7.20653,3.83526 z M 8.00431,3.52637 L 7.827271,3.52637 L 7.8435702,3.4434094 L 8.0302312,3.4434094 L 8.0509753,3.3360034 L 7.7376403,3.3360034 L 7.6428214,3.8352594 L 7.9665304,3.8352594 L 7.9872706,3.7278504 L 7.7894906,3.7278504 L 7.8080103,3.6330394 L 7.9835693,3.6330394 L 8.0043095,3.5263704 L 8.00431,3.52637 z M 6.79431,4.68415 L 6.919491,4.68415 L 6.9550501,4.496004 L 6.9780107,4.496004 C 7.0165304,4.496004 7.0357902,4.5100749 7.0402351,4.5671142 C 7.0461564,4.630815 7.0513414,4.6693342 7.0557902,4.6841492 L 7.1854162,4.6841492 C 7.1757902,4.663409 7.1713414,4.5908146 7.164676,4.5404482 C 7.159491,4.4974876 7.1476406,4.4671136 7.1202351,4.4530427 L 7.1209753,4.4500742 C 7.1854162,4.4278537 7.2313413,4.3848931 7.2313413,4.3108222 C 7.2313413,4.2589679 7.2039358,4.2256332 7.1683807,4.2071132 C 7.129861,4.1856329 7.0780106,4.181188 7.0320817,4.181188 C 6.9772707,4.181188 6.9224557,4.186373 6.8876407,4.1945226 L 6.79431,4.6841486 L 6.79431,4.68415 z M 6.99579,4.28341 C 7.0031955,4.2819297 7.0150498,4.2804494 7.0328215,4.2804494 C 7.0691207,4.2804494 7.1002349,4.2960045 7.1002349,4.3300754 C 7.1002349,4.3737841 7.0617152,4.4019297 7.0120814,4.4019297 L 6.9728216,4.4019297 L 6.9957901,4.2834097 L 6.99579,4.28341 z M 7.332081,4.1848943 L 7.2802345,4.4574883 C 7.2757896,4.4819292 7.2728211,4.5071143 7.2728211,4.5285946 C 7.2728211,4.6360036 7.3357896,4.6931616 7.4476401,4.6924216 C 7.5965301,4.6924216 7.6594901,4.614524 7.6883801,4.4626696 L 7.7409746,4.1848936 L 7.6143096,4.1848936 L 7.5602348,4.4693346 C 7.5446757,4.5537834 7.5135694,4.5871146 7.4624553,4.5871146 C 7.4187506,4.5871146 7.3994907,4.5567445 7.3987506,4.5263744 C 7.3987506,4.5041539 7.400975,4.4841539 7.4039357,4.4685949 L 7.4580105,4.1848939 L 7.3320815,4.1848939 L 7.332081,4.1848943 z M 7.853561,4.6841503 L 7.8794901,4.5463743 C 7.8950413,4.4634097 7.9083759,4.3841543 7.9143011,4.3345243 L 7.9165295,4.3345243 C 7.9306004,4.4011897 7.9454153,4.4508233 7.9661555,4.5211893 L 8.0165295,4.6841503 L 8.1491165,4.6841503 L 8.2431913,4.1848943 L 8.1254153,4.1848943 L 8.0980098,4.3308233 C 8.0846752,4.4056343 8.0765295,4.4656343 8.0743011,4.5197093 L 8.0720806,4.5197093 C 8.0602302,4.4597093 8.0454152,4.4019293 8.0261554,4.3360043 L 7.9809704,4.1848943 L 7.8306004,4.1848943 L 7.7365295,4.6841503 L 7.8535605,4.6841503 L 7.853561,4.6841503 z M 7.243195,5.2389653 L 7.052829,5.2389653 L 7.032829,5.3389653 L 7.1002345,5.3389653 L 7.0839353,5.4248905 C 7.0743093,5.4285952 7.0617148,5.4315558 7.0387503,5.4315558 C 6.9743094,5.4315558 6.9239353,5.3989652 6.9239353,5.3204498 C 6.9239353,5.2522963 6.952829,5.1989658 6.9950495,5.1678558 C 7.0246755,5.1478559 7.0646755,5.1367456 7.1106005,5.1367456 C 7.1543092,5.1367456 7.1950493,5.1478559 7.2165295,5.1567456 L 7.2535689,5.0500766 C 7.2328209,5.0404507 7.1817146,5.0285963 7.1150489,5.0285963 C 7.025415,5.0285963 6.9461589,5.0537853 6.8883799,5.1004506 C 6.8246752,5.1530451 6.7846749,5.2315566 6.7846749,5.3293366 C 6.7846749,5.3989665 6.8120804,5.4545256 6.8528284,5.4871166 C 6.895789,5.5211914 6.9528284,5.5383528 7.0202344,5.5383528 C 7.0854155,5.5383528 7.1491204,5.5226717 7.1913404,5.5093371 L 7.2431947,5.2389671 L 7.243195,5.2389653 z M 7.391341,5.5330363 L 7.4172701,5.3952643 C 7.4328213,5.3122958 7.4461559,5.2330443 7.4520811,5.1834103 L 7.4543095,5.1834103 C 7.4683804,5.2500757 7.4831953,5.2997093 7.5039355,5.3700753 L 7.5543095,5.5330363 L 7.6868965,5.5330363 L 7.7809713,5.0337843 L 7.6631953,5.0337843 L 7.6357898,5.1797093 C 7.6224552,5.2545243 7.6143095,5.3145243 7.6120811,5.3685953 L 7.6098606,5.3685953 C 7.5980102,5.3085953 7.5831952,5.2508153 7.5639354,5.1848903 L 7.5187504,5.0337843 L 7.3683804,5.0337843 L 7.2743095,5.5330363 L 7.3913405,5.5330363 L 7.391341,5.5330363 z M 7.870601,5.0337843 L 7.8187545,5.3063753 C 7.8143096,5.3308162 7.8113411,5.3560052 7.8113411,5.3774855 C 7.8113411,5.4848915 7.8743096,5.5420525 7.9861601,5.5413125 C 8.1350501,5.5413125 8.1980101,5.4634109 8.2269001,5.3115565 L 8.2794946,5.0337845 L 8.1528296,5.0337845 L 8.0987548,5.3182255 C 8.0831957,5.4026704 8.0520894,5.4360055 8.0009753,5.4360055 C 7.9572706,5.4360055 7.9380107,5.4056315 7.9372706,5.3752653 C 7.9372706,5.3530448 7.939495,5.3330448 7.9424557,5.3174858 L 7.9965305,5.0337848 L 7.8706015,5.0337848 L 7.870601,5.0337843 z"
   id="path2075"
   style="fill:#052638;fill-rule:nonzero" />
  <path
   class="fil8"
   d="M 2.53066,5.29028 L 2.5361521,5.412406 L 2.5636285,5.412406 L 2.5826088,5.3677013 C 2.5868529,5.3574611 2.591101,5.3444769 2.595345,5.3297407 L 2.5960931,5.3297407 C 2.594845,5.3444769 2.594097,5.3572131 2.594345,5.3677013 L 2.5960931,5.412406 L 2.6233175,5.412406 L 2.6770144,5.29028 L 2.6465459,5.29028 L 2.6278136,5.3439769 C 2.6223175,5.3607092 2.6195695,5.3697013 2.6165734,5.3819375 L 2.6158253,5.3819375 C 2.6173214,5.3692013 2.6175734,5.3632052 2.6175734,5.3464729 L 2.6170734,5.29028 L 2.593097,5.29028 L 2.5693726,5.3472209 C 2.5638765,5.3612091 2.5608804,5.3699492 2.5573844,5.3819374 L 2.5566324,5.3819374 C 2.5583804,5.3694492 2.5588804,5.3612091 2.5601285,5.3447248 L 2.5631285,5.2902799 L 2.53066,5.2902799 L 2.53066,5.29028 z M 2.701987,5.29028 L 2.7074791,5.412406 L 2.7349555,5.412406 L 2.7539358,5.3677013 C 2.7581799,5.3574611 2.762428,5.3444769 2.766672,5.3297407 L 2.7674201,5.3297407 C 2.766172,5.3444769 2.765424,5.3572131 2.765672,5.3677013 L 2.7674201,5.412406 L 2.7946445,5.412406 L 2.8483414,5.29028 L 2.8178729,5.29028 L 2.7991406,5.3439769 C 2.7936445,5.3607092 2.7908965,5.3697013 2.7879004,5.3819375 L 2.7871523,5.3819375 C 2.7886484,5.3692013 2.7889004,5.3632052 2.7889004,5.3464729 L 2.7884004,5.29028 L 2.764424,5.29028 L 2.7406996,5.3472209 C 2.7352035,5.3612091 2.7322074,5.3699492 2.7287114,5.3819374 L 2.7279594,5.3819374 C 2.7297074,5.3694492 2.7302074,5.3612091 2.7314555,5.3447248 L 2.7344555,5.2902799 L 2.701987,5.2902799 L 2.701987,5.29028 z M 2.873314,5.29028 L 2.8788061,5.412406 L 2.9062825,5.412406 L 2.9252628,5.3677013 C 2.9295069,5.3574611 2.933755,5.3444769 2.937999,5.3297407 L 2.9387471,5.3297407 C 2.937499,5.3444769 2.936751,5.3572131 2.936999,5.3677013 L 2.9387471,5.412406 L 2.9659715,5.412406 L 3.0196684,5.29028 L 2.9891999,5.29028 L 2.9704676,5.3439769 C 2.9649715,5.3607092 2.9622235,5.3697013 2.9592274,5.3819375 L 2.9584793,5.3819375 C 2.9599754,5.3692013 2.9602274,5.3632052 2.9602274,5.3464729 L 2.9597274,5.29028 L 2.935751,5.29028 L 2.9120266,5.3472209 C 2.9065305,5.3612091 2.9035344,5.3699492 2.9000384,5.3819374 L 2.8992864,5.3819374 C 2.9010344,5.3694492 2.9015344,5.3612091 2.9027825,5.3447248 L 2.9057825,5.2902799 L 2.873314,5.2902799 L 2.873314,5.29028 z M 3.038397,5.414445 C 3.0493852,5.414445 3.0591253,5.4054135 3.0591253,5.3909293 C 3.0591253,5.3794411 3.0528812,5.370949 3.040397,5.370949 C 3.0296568,5.370949 3.0204167,5.3824372 3.0204167,5.3941773 C 3.0204167,5.4059135 3.0266569,5.414445 3.038149,5.414445 L 3.038397,5.414445 L 3.038397,5.414445 z M 3.0888025,5.456945 C 3.0935899,5.4599017 3.1055781,5.4623978 3.1150702,5.4623978 C 3.1323025,5.4623978 3.1462867,5.4579056 3.1562789,5.4479135 C 3.1667671,5.4376733 3.1732632,5.4216064 3.1772592,5.3999214 L 3.1969875,5.2957714 C 3.1882473,5.2912753 3.1762592,5.2882792 3.162271,5.2882792 C 3.1173182,5.2882792 3.0945899,5.3388146 3.0953379,5.3774012 C 3.0958379,5.3966729 3.104082,5.4124051 3.1210623,5.4124051 C 3.1308025,5.4121571 3.1400466,5.407413 3.1485347,5.3944248 L 3.1490347,5.3944248 L 3.1460386,5.4089091 C 3.1425426,5.4261847 3.1340504,5.4381729 3.1163181,5.4381729 C 3.1100741,5.4381729 3.1018338,5.4359249 3.0968378,5.4331769 L 3.0888024,5.4569446 L 3.0888025,5.456945 z M 3.1545308,5.3607088 C 3.1525308,5.3709057 3.1455387,5.3876812 3.1357985,5.3876812 C 3.1270583,5.3876812 3.1263064,5.3774017 3.1263064,5.3683662 C 3.1265583,5.3475985 3.1385466,5.3125079 3.1567788,5.3125079 C 3.1595268,5.3125079 3.1615229,5.3127559 3.1632709,5.3137559 L 3.1545307,5.3607087 L 3.1545308,5.3607088 z M 3.2464402,5.4124057 L 3.2586764,5.3477207 C 3.2629205,5.3244963 3.2729126,5.3137561 3.2801567,5.3137561 C 3.2854008,5.3137561 3.2876488,5.3177522 3.2876488,5.3234963 C 3.2876488,5.3282403 3.2871488,5.3322364 3.2861488,5.3364845 L 3.2719126,5.4124058 L 3.3031331,5.4124058 L 3.3171174,5.3382326 C 3.3186174,5.3297404 3.3198655,5.3222483 3.3198655,5.3150043 C 3.3198655,5.30052 3.3136214,5.2882799 3.2961411,5.2882799 C 3.2831529,5.2882799 3.2716647,5.2947759 3.2631726,5.3060122 L 3.2626726,5.3060122 L 3.2639206,5.2902799 L 3.2371962,5.2902799 C 3.2354482,5.3020161 3.2337001,5.3157523 3.230956,5.3299886 L 3.2152198,5.4124059 L 3.2464403,5.4124059 L 3.2464402,5.4124057 z M 3.4215152,5.2902797 L 3.4085309,5.3609569 C 3.4050348,5.3784412 3.3970427,5.3889293 3.3890506,5.3889293 C 3.3838026,5.3889293 3.3815545,5.3851852 3.3815545,5.3791891 C 3.3815545,5.3734451 3.3825545,5.3672009 3.3838026,5.3597088 L 3.3970428,5.2902797 L 3.3658223,5.2902797 L 3.3525861,5.3609569 C 3.350838,5.370201 3.3495861,5.3784412 3.3495861,5.3861852 C 3.3495861,5.4021695 3.3565821,5.414445 3.3728144,5.414445 C 3.3843026,5.414445 3.3955427,5.4086616 3.4045349,5.3956733 L 3.4050349,5.3959253 L 3.4040349,5.4124056 L 3.4310073,5.4124056 C 3.4325073,5.4006694 3.4345033,5.3869332 3.4372514,5.3726969 L 3.4527357,5.2902796 L 3.4215152,5.2902796 L 3.4215152,5.2902797 z M 3.4902002,5.4144447 C 3.5011884,5.4144447 3.5109285,5.4054132 3.5109285,5.390929 C 3.5109285,5.3794408 3.5046844,5.3709487 3.4922002,5.3709487 C 3.48146,5.3709487 3.4722199,5.3824369 3.4722199,5.394177 C 3.4722199,5.4059132 3.4784601,5.4144447 3.4899522,5.4144447 L 3.4902002,5.4144447 L 3.4902002,5.4144447 z M 3.5851057,5.4144447 C 3.6218183,5.4144447 3.6422986,5.369366 3.6422986,5.3310313 C 3.6422986,5.3137557 3.6378025,5.2882793 3.6070821,5.2882793 C 3.5701215,5.2882793 3.5473931,5.3307793 3.5473931,5.3721533 C 3.5473931,5.3901809 3.5541372,5.4144446 3.5848537,5.4144446 L 3.5851057,5.4144446 L 3.5851057,5.4144447 z M 3.5878537,5.390677 C 3.5786096,5.390677 3.5781096,5.3796494 3.5781096,5.370866 C 3.5778616,5.3495943 3.5883498,5.3117558 3.6018379,5.3117558 C 3.609582,5.3117558 3.6115781,5.3189999 3.6115781,5.3270353 C 3.6115781,5.3490944 3.6033379,5.390677 3.5881017,5.390677 L 3.5878537,5.390677 L 3.5878537,5.390677 z M 3.6952437,5.4124053 L 3.7057358,5.3559644 C 3.7097319,5.3354841 3.7224681,5.3197479 3.7359523,5.3197479 C 3.7374523,5.3197479 3.7399484,5.3199999 3.7409484,5.3202479 L 3.7469444,5.2887794 C 3.7454444,5.2885314 3.7439444,5.2882794 3.7419484,5.2882794 C 3.7317082,5.2882794 3.7207201,5.2952715 3.7117279,5.3107597 L 3.7107279,5.3107597 C 3.7117279,5.3032636 3.7122279,5.2967715 3.7127279,5.2902794 L 3.6860035,5.2902794 C 3.6842555,5.3017676 3.6825074,5.3157518 3.6797594,5.3294881 L 3.6639838,5.4124054 L 3.6952436,5.4124054 L 3.6952437,5.4124053 z M 3.7518933,5.4569447 C 3.7566807,5.4599014 3.7686689,5.4623975 3.778161,5.4623975 C 3.7953933,5.4623975 3.8093775,5.4579053 3.8193697,5.4479132 C 3.8298579,5.437673 3.836354,5.4216061 3.84035,5.3999211 L 3.8600783,5.2957711 C 3.8513382,5.291275 3.83935,5.2882789 3.8253618,5.2882789 C 3.780409,5.2882789 3.7576807,5.3388143 3.7584287,5.3774009 C 3.7589287,5.3966726 3.7671728,5.4124048 3.7841531,5.4124048 C 3.7938933,5.4121568 3.8031374,5.4074127 3.8116255,5.3944245 L 3.8121255,5.3944245 L 3.8091295,5.4089088 C 3.8056334,5.4261844 3.7971413,5.4381726 3.779409,5.4381726 C 3.7731649,5.4381726 3.7649247,5.4359246 3.7599287,5.4331766 L 3.7518932,5.4569443 L 3.7518933,5.4569447 z M 3.8176216,5.3607085 C 3.8156216,5.3709054 3.8086295,5.3876809 3.7988893,5.3876809 C 3.7901492,5.3876809 3.7893972,5.3774014 3.7893972,5.3683659 C 3.7896492,5.3475982 3.8016374,5.3125076 3.8198696,5.3125076 C 3.8226176,5.3125076 3.8246137,5.3127556 3.8263617,5.3137556 L 3.8176216,5.3607084 L 3.8176216,5.3607085 z M 3.9519876,5.2250945 L 3.9519876,5.4748855 L 3.9737159,5.4748855 L 3.9737159,5.2250945 L 3.9519876,5.2250945 z M 4.0688696,5.2902795 L 4.0743618,5.4124055 L 4.1018382,5.4124055 L 4.1208185,5.3677008 C 4.1250626,5.3574606 4.1293106,5.3444764 4.1335547,5.3297402 L 4.1343027,5.3297402 C 4.1330547,5.3444764 4.1323066,5.3572126 4.1325547,5.3677008 L 4.1343027,5.4124055 L 4.1615271,5.4124055 L 4.215224,5.2902795 L 4.1847555,5.2902795 L 4.1660232,5.3439764 C 4.1605271,5.3607087 4.1577791,5.3697008 4.154783,5.381937 L 4.154035,5.381937 C 4.155531,5.3692008 4.155783,5.3632047 4.155783,5.3464724 L 4.155283,5.2902795 L 4.1313066,5.2902795 L 4.1075822,5.3472204 C 4.1020861,5.3612086 4.0990901,5.3699487 4.095594,5.3819369 L 4.094842,5.3819369 C 4.0965901,5.3694487 4.0970901,5.3612086 4.0983381,5.3447243 L 4.1013381,5.2902794 L 4.0688696,5.2902794 L 4.0688696,5.2902795 z M 4.2401966,5.2902795 L 4.2456888,5.4124055 L 4.2731652,5.4124055 L 4.2921455,5.3677008 C 4.2963896,5.3574606 4.3006376,5.3444764 4.3048817,5.3297402 L 4.3056297,5.3297402 C 4.3043817,5.3444764 4.3036336,5.3572126 4.3038817,5.3677008 L 4.3056297,5.4124055 L 4.3328541,5.4124055 L 4.386551,5.2902795 L 4.3560825,5.2902795 L 4.3373502,5.3439764 C 4.3318541,5.3607087 4.3291061,5.3697008 4.32611,5.381937 L 4.325362,5.381937 C 4.326858,5.3692008 4.32711,5.3632047 4.32711,5.3464724 L 4.32661,5.2902795 L 4.3026336,5.2902795 L 4.2789092,5.3472204 C 4.2734131,5.3612086 4.2704171,5.3699487 4.266921,5.3819369 L 4.266169,5.3819369 C 4.2679171,5.3694487 4.2684171,5.3612086 4.2696651,5.3447243 L 4.2726651,5.2902794 L 4.2401966,5.2902794 L 4.2401966,5.2902795 z M 4.4115236,5.2902795 L 4.4170158,5.4124055 L 4.4444922,5.4124055 L 4.4634725,5.3677008 C 4.4677166,5.3574606 4.4719646,5.3444764 4.4762087,5.3297402 L 4.4769567,5.3297402 C 4.4757087,5.3444764 4.4749606,5.3572126 4.4752087,5.3677008 L 4.4769567,5.4124055 L 4.5041811,5.4124055 L 4.557878,5.2902795 L 4.5274095,5.2902795 L 4.5086772,5.3439764 C 4.5031811,5.3607087 4.5004331,5.3697008 4.497437,5.381937 L 4.496689,5.381937 C 4.498185,5.3692008 4.498437,5.3632047 4.498437,5.3464724 L 4.497937,5.2902795 L 4.4739606,5.2902795 L 4.4502362,5.3472204 C 4.4447401,5.3612086 4.4417441,5.3699487 4.438248,5.3819369 L 4.437496,5.3819369 C 4.4392441,5.3694487 4.4397441,5.3612086 4.4409921,5.3447243 L 4.4439921,5.2902794 L 4.4115236,5.2902794 L 4.4115236,5.2902795 z M 4.5766066,5.4144445 C 4.5875948,5.4144445 4.5973349,5.405413 4.5973349,5.3909288 C 4.5973349,5.3794406 4.5910908,5.3709485 4.5786066,5.3709485 C 4.5678664,5.3709485 4.5586263,5.3824367 4.5586263,5.3941768 C 4.5586263,5.405913 4.5648665,5.4144445 4.5763586,5.4144445 L 4.5766067,5.4144445 L 4.5766066,5.4144445 z M 4.664268,5.4124051 L 4.6832483,5.3125075 L 4.7067247,5.3125075 L 4.7107208,5.2902792 L 4.6872444,5.2902792 L 4.6882444,5.2852832 C 4.6899924,5.274295 4.6967365,5.2625549 4.7077247,5.2625549 C 4.7119727,5.2625549 4.7147168,5.2630549 4.7174648,5.2640549 L 4.7247089,5.2400785 C 4.7209609,5.2388304 4.7149688,5.2375824 4.7067246,5.2375824 C 4.6944884,5.2375824 4.6835002,5.2418265 4.6760081,5.2485706 C 4.6657679,5.2583108 4.6602719,5.2707989 4.6575238,5.2855312 L 4.6565278,5.2902792 L 4.6400435,5.2902792 L 4.6360474,5.3125075 L 4.6522797,5.3125075 L 4.6332994,5.4124051 L 4.6642679,5.4124051 L 4.664268,5.4124051 z M 4.7131774,5.407661 C 4.7174648,5.4106571 4.727453,5.4139484 4.7386931,5.4139484 C 4.7666655,5.4139484 4.7853978,5.3989208 4.7853978,5.3719051 C 4.7853978,5.3623736 4.7809018,5.3503421 4.7671655,5.3398106 C 4.7614214,5.3353185 4.7579254,5.3312791 4.7579254,5.325283 C 4.7579254,5.3169996 4.7641655,5.3117554 4.7741577,5.3117554 C 4.7791537,5.3117554 4.7848979,5.3135035 4.788642,5.3155035 L 4.7953861,5.2929838 C 4.79089,5.2902357 4.7828979,5.288279 4.7724097,5.288279 C 4.7446853,5.288279 4.727205,5.3065546 4.727205,5.329031 C 4.727205,5.3393145 4.731949,5.350342 4.7426893,5.3588775 C 4.7511814,5.3656216 4.7544255,5.3701137 4.7544255,5.3771492 C 4.7544255,5.3846847 4.7494333,5.3904287 4.7404412,5.3906768 C 4.731701,5.3909288 4.725705,5.3884288 4.7207089,5.3856847 L 4.7131774,5.4076611 L 4.7131774,5.407661 z M 4.8488344,5.4124051 L 4.8678147,5.3125075 L 4.8912911,5.3125075 L 4.8952872,5.2902792 L 4.8718108,5.2902792 L 4.8728108,5.2852832 C 4.8745588,5.274295 4.8813029,5.2625549 4.8922911,5.2625549 C 4.8965391,5.2625549 4.8992832,5.2630549 4.9020313,5.2640549 L 4.9092753,5.2400785 C 4.9055273,5.2388304 4.8995352,5.2375824 4.891291,5.2375824 C 4.8790548,5.2375824 4.8680666,5.2418265 4.8605745,5.2485706 C 4.8503343,5.2583108 4.8448383,5.2707989 4.8420902,5.2855312 L 4.8410942,5.2902792 L 4.8246099,5.2902792 L 4.8206138,5.3125075 L 4.8368461,5.3125075 L 4.8178658,5.4124051 L 4.8488343,5.4124051 L 4.8488344,5.4124051 z M 4.9117714,5.4144445 C 4.9227596,5.4144445 4.9324997,5.405413 4.9324997,5.3909288 C 4.9324997,5.3794406 4.9262556,5.3709485 4.9137714,5.3709485 C 4.9030312,5.3709485 4.8937911,5.3824367 4.8937911,5.3941768 C 4.8937911,5.405913 4.9000313,5.4144445 4.9115234,5.4144445 L 4.9117715,5.4144445 L 4.9117714,5.4144445 z M 5.0066769,5.4144445 C 5.0433895,5.4144445 5.0638698,5.3693658 5.0638698,5.3310311 C 5.0638698,5.3137555 5.0593738,5.2882791 5.0286533,5.2882791 C 4.9916927,5.2882791 4.9689643,5.3307791 4.9689643,5.3721531 C 4.9689643,5.3901807 4.9757084,5.4144444 5.0064249,5.4144444 L 5.0066769,5.4144444 L 5.0066769,5.4144445 z M 5.009425,5.3906768 C 5.0001809,5.3906768 4.9996809,5.3796492 4.9996809,5.3708658 C 4.9994328,5.3495941 5.0099211,5.3117556 5.0234092,5.3117556 C 5.0311533,5.3117556 5.0331493,5.3189997 5.0331493,5.3270351 C 5.0331493,5.3490942 5.0249092,5.3906768 5.0096729,5.3906768 L 5.0094249,5.3906768 L 5.009425,5.3906768 z M 5.116815,5.4124051 L 5.1273071,5.3559642 C 5.1313031,5.3354839 5.1440394,5.3197477 5.1575236,5.3197477 C 5.1590236,5.3197477 5.1615196,5.3199997 5.1625196,5.3202477 L 5.1685157,5.2887792 C 5.1670157,5.2885312 5.1655157,5.2882792 5.1635196,5.2882792 C 5.1532794,5.2882792 5.1422913,5.2952713 5.1332991,5.3107595 L 5.1322991,5.3107595 C 5.1332991,5.3032634 5.1337991,5.2967713 5.1342991,5.2902792 L 5.1075747,5.2902792 C 5.1058267,5.3017674 5.1040787,5.3157516 5.1013306,5.3294879 L 5.085555,5.4124052 L 5.1168148,5.4124052 L 5.116815,5.4124051 z M 5.1734646,5.4569445 C 5.178252,5.4599012 5.1902402,5.4623973 5.1997323,5.4623973 C 5.2169646,5.4623973 5.2309488,5.4579051 5.240941,5.447913 C 5.2514292,5.4376728 5.2579253,5.4216059 5.2619213,5.3999209 L 5.2816496,5.2957709 C 5.2729094,5.2912748 5.2609213,5.2882787 5.2469331,5.2882787 C 5.2019803,5.2882787 5.179252,5.3388141 5.18,5.3774007 C 5.1805,5.3966724 5.1887441,5.4124046 5.2057244,5.4124046 C 5.2154645,5.4121566 5.2247087,5.4074125 5.2331968,5.3944243 L 5.2336968,5.3944243 L 5.2307007,5.4089086 C 5.2272046,5.4261842 5.2187125,5.4381724 5.2009802,5.4381724 C 5.1947361,5.4381724 5.1864959,5.4359244 5.1814999,5.4331764 L 5.1734645,5.4569441 L 5.1734646,5.4569445 z M 5.2391929,5.3607083 C 5.2371929,5.3709052 5.2302007,5.3876807 5.2204606,5.3876807 C 5.2117204,5.3876807 5.2109684,5.3774012 5.2109684,5.3683657 C 5.2112204,5.347598 5.2232086,5.3125074 5.2414408,5.3125074 C 5.2441889,5.3125074 5.2461849,5.3127554 5.247933,5.3137554 L 5.2391928,5.3607082 L 5.2391929,5.3607083 z"
   id="path2077"
   style="fill:#052638;fill-rule:nonzero" />
 </g>
<path
   style="fill:#002940;fill-opacity:1"
   id="path2484"
   d="M 0.20220835,0.20762329 C 0.20298405,0.20796323 0.20374117,0.20833364 0.20448016,0.20874655 C 0.20495865,0.20901396 0.20534547,0.20940689 0.20571617,0.20980419 C 0.20607116,0.21019062 0.20640626,0.21059113 0.20669249,0.21103133 C 0.20698414,0.21146461 0.20719767,0.21194642 0.2073708,0.21243772 C 0.20745137,0.21262966 0.20753689,0.21281848 0.20763017,0.21300451 L 0.2046561,0.21470025 C 0.2045536,0.21450043 0.20446235,0.21429722 0.20437755,0.21408913 C 0.20422316,0.21362114 0.20401898,0.2131645 0.20374366,0.21275471 C 0.20346811,0.21233094 0.20313825,0.21195166 0.20279416,0.21158221 C 0.20244253,0.21121041 0.20208048,0.21084598 0.20162425,0.21060229 C 0.20090601,0.21017906 0.20015886,0.20981075 0.19937593,0.20952085 L 0.20220835,0.20762329 z" /><path
   style="fill:#002940;fill-opacity:1"
   id="path2486"
   d="M 0.20237071,0.21514301 C 0.20133523,0.21467152 0.20041713,0.2139529 0.1995084,0.21327327 C 0.19858069,0.21260014 0.19768954,0.21187979 0.1967909,0.21116865 C 0.1966993,0.21108275 0.19660769,0.21099686 0.19651608,0.21091096 L 0.19940988,0.20912978 C 0.19949217,0.20921106 0.19957447,0.20929235 0.19965676,0.20937363 C 0.20052312,0.21011253 0.20143251,0.21079686 0.20234034,0.21148342 C 0.20321894,0.21215373 0.20413387,0.21286609 0.20519745,0.2132071 L 0.20237071,0.21514301 z" /><path
   style="fill:#002940;fill-opacity:1"
   id="path2488"
   d="M 0.20121121,0.20805642 C 0.20197244,0.20839096 0.20256244,0.20896077 0.20316173,0.20951747 C 0.20353035,0.20981967 0.20334776,0.20967211 0.2037093,0.20996037 L 0.20082775,0.21176716 C 0.20046414,0.21146577 0.20064776,0.21162209 0.20027741,0.21129758 C 0.19970499,0.21075477 0.19911923,0.21022573 0.19836153,0.2099555 L 0.20121121,0.20805642 z" /><path
   style="fill:#002940;fill-opacity:1"
   id="path2490"
   d="M 0.20331838,0.2087864 C 0.20403608,0.20912427 0.20473977,0.2094664 0.20532534,0.21000934 C 0.20573069,0.21046139 0.20592356,0.21103914 0.20610059,0.21160776 L 0.20310909,0.21324926 C 0.20294559,0.21273979 0.20280099,0.21220589 0.2024337,0.21179871 C 0.20186323,0.21128277 0.20116029,0.21097515 0.20046294,0.21066518 L 0.20331838,0.2087864 z" /><path
   style="fill:#002940;fill-opacity:1"
   id="path2492"
   d="M 0.067123724,0.41277288 C 0.067241113,0.41276346 0.067358144,0.4127425 0.067475891,0.41274463 C 0.068185302,0.4127575 0.068892188,0.41293374 0.069582989,0.41307451 C 0.070604997,0.41328277 0.070146869,0.4131813 0.071122557,0.41341655 C 0.072423893,0.41372234 0.073704378,0.41411311 0.074974418,0.41452858 C 0.07573123,0.41477202 0.076507668,0.4149356 0.077269324,0.41516009 C 0.077762134,0.41533276 0.078248266,0.41552093 0.078755211,0.41564798 L 0.075950021,0.417575 C 0.075445386,0.41742902 0.074954111,0.41724392 0.074454374,0.4170822 C 0.07370054,0.41685081 0.072927656,0.41668619 0.072184035,0.41641981 C 0.070937374,0.41598232 0.069668201,0.41561472 0.068382442,0.41530973 C 0.067082047,0.41499457 0.065725432,0.41463222 0.064380221,0.41481876 L 0.067123724,0.41277288 z" /><path
   style="fill:#002940;fill-opacity:1"
   id="path2494"
   d="M 0.22332431,0.40949867 C 0.2246012,0.40932757 0.22589294,0.40926084 0.2271794,0.40919173 C 0.22818831,0.40914184 0.22919858,0.40913685 0.23020848,0.4091346 C 0.23134725,0.40910678 0.23246159,0.40937535 0.23358097,0.40954608 C 0.23488363,0.40973511 0.23613616,0.41012004 0.23738524,0.41051998 C 0.23815735,0.41076983 0.23893344,0.41100309 0.23970159,0.41126484 L 0.23693811,0.41313456 C 0.23618035,0.41286523 0.23541601,0.41261847 0.23464458,0.41239064 C 0.23339246,0.41203274 0.23214165,0.41165855 0.23084999,0.41146736 C 0.22973197,0.41129444 0.22861058,0.41108694 0.22747404,0.41112232 C 0.22647523,0.41112503 0.22547617,0.41113122 0.22447815,0.41117516 C 0.22318377,0.41123599 0.22187285,0.41128505 0.22060639,0.41157695 L 0.22332431,0.40949867 z" /><path
   style="fill:#002940;fill-opacity:1"
   id="path2496"
   d="M 0.22707259,0.41043096 C 0.22866284,0.41012371 0.23022298,0.4102964 0.23182814,0.4103693 C 0.23335,0.41049844 0.2348878,0.41048135 0.23640073,0.41070916 C 0.23718775,0.41082767 0.2376567,0.41094597 0.23842862,0.41111799 L 0.23572903,0.41299118 C 0.23356436,0.41251857 0.23141662,0.41234582 0.22920426,0.41226151 C 0.22758302,0.41221997 0.22594569,0.41211298 0.2243523,0.41249061 L 0.22707259,0.41043096 z" /><path
   style="fill:#002940;fill-opacity:1"
   id="path2498"
   d="M 0.225401,0.41042164 C 0.22667992,0.4101205 0.22800054,0.41015486 0.22930345,0.4102058 C 0.2314211,0.41024154 0.23351646,0.41052965 0.23560542,0.41085332 C 0.23667938,0.41097745 0.23773807,0.41116208 0.23878424,0.41143128 C 0.2391398,0.41154564 0.23949839,0.41164328 0.23985237,0.41176262 L 0.23704253,0.41367175 C 0.23669203,0.41356144 0.23633961,0.41345859 0.2359866,0.41335656 C 0.23497033,0.41308667 0.23393597,0.41291133 0.23289644,0.41275604 C 0.23083311,0.41240955 0.22875681,0.41214235 0.22666091,0.41211744 C 0.22532662,0.41211442 0.22397753,0.41213532 0.22268308,0.41249992 L 0.225401,0.41042164 z" /><path
   style="fill:#002940;fill-opacity:1"
   id="path2500"
   d="M 0.22729813,0.41051151 C 0.22911069,0.4107628 0.23091985,0.41104697 0.23273222,0.41130492 C 0.23409162,0.41151471 0.23546885,0.41157655 0.23682312,0.41181932 C 0.23776498,0.41196625 0.23869515,0.41215922 0.23962173,0.41238277 L 0.23685582,0.41429687 C 0.23592944,0.41408738 0.23499353,0.41392933 0.23406028,0.41375405 C 0.23273032,0.4135247 0.23138171,0.4134288 0.2300526,0.41319172 C 0.2282224,0.41290532 0.22638554,0.41260475 0.22453305,0.41252046 L 0.22729813,0.41051151 z" /><path
   style="fill:#002940;fill-opacity:1"
   id="path2502"
   d="M 0.21727184,0.39611643 C 0.21757581,0.39541074 0.21784265,0.39469168 0.21817977,0.39400074 C 0.21847026,0.39332782 0.21884192,0.3926966 0.21917534,0.39204559 C 0.21950496,0.39133996 0.21985019,0.39064249 0.22014116,0.38991982 C 0.22049213,0.38873198 0.2209701,0.3876033 0.22150382,0.38648774 C 0.22227791,0.38471941 0.22321546,0.38303454 0.22412515,0.38133473 C 0.22464169,0.38032077 0.22515201,0.37930454 0.22571974,0.37831801 C 0.22601923,0.37783016 0.22626297,0.37731154 0.22649953,0.37679125 L 0.22958451,0.37537969 C 0.22934955,0.37591184 0.22910677,0.37644408 0.22880847,0.37694404 C 0.22822422,0.3779375 0.22767504,0.37894913 0.22715273,0.37997673 C 0.22653476,0.38110668 0.22586928,0.38221118 0.22531324,0.38337437 C 0.2251697,0.38367464 0.22504589,0.38398398 0.22490691,0.38428639 C 0.22477883,0.38456507 0.22464371,0.38484046 0.22451211,0.3851175 C 0.22428967,0.38560233 0.22404188,0.38607621 0.22384289,0.38657113 C 0.22359122,0.3871971 0.22343443,0.38786223 0.22320998,0.38849785 C 0.22293196,0.38922789 0.22260203,0.38992918 0.22227756,0.39063982 C 0.22196214,0.39130497 0.22154363,0.39191634 0.2212687,0.39260262 C 0.2209256,0.39327753 0.22063392,0.39397217 0.22038351,0.39468652 L 0.21727184,0.39611643 z" /><path
   style="fill:#002940;fill-opacity:1"
   id="path2516"
   d="M 0.27772696,0.28148405 C 0.27770253,0.2822396 0.27770932,0.2829958 0.2777143,0.28375162 C 0.27774186,0.28431342 0.27763261,0.28486729 0.27756477,0.28542227 C 0.27750458,0.28593376 0.27749863,0.28644902 0.27748969,0.28696328 L 0.27444969,0.28850876 C 0.2744501,0.28798526 0.27445079,0.28746037 0.27450083,0.28693881 C 0.27456198,0.28639048 0.27469145,0.28584788 0.27468573,0.28529475 C 0.27469065,0.28454324 0.27469775,0.28379132 0.27467307,0.28304008 L 0.27772696,0.28148405 z" /><path
   style="fill:#002940;fill-opacity:1"
   id="path2518"
   d="M 0.2779577,0.28033033 C 0.27793383,0.28103909 0.27794329,0.28174852 0.27794772,0.28245754 C 0.27795024,0.2828196 0.27795193,0.28318167 0.27795323,0.28354373 L 0.27490829,0.28509521 C 0.2749096,0.28473127 0.27491128,0.28436734 0.2749138,0.28400341 C 0.27491818,0.28329778 0.27492789,0.28259172 0.27490382,0.28188636 L 0.2779577,0.28033033 z" /><path
   style="fill:#002940;fill-opacity:1"
   id="path2524"
   d="M 0.29804865,0.27361726 C 0.29810214,0.27441772 0.29820313,0.27520405 0.29837157,0.27598807 C 0.29855799,0.27671336 0.29883231,0.27741313 0.299147,0.27809157 C 0.29943094,0.27867542 0.29962951,0.27929434 0.29987636,0.27989378 L 0.29690474,0.28155711 C 0.29665974,0.28096179 0.29646159,0.2803478 0.29618279,0.27976644 C 0.29586244,0.27906302 0.29559107,0.27833487 0.29538928,0.2775885 C 0.29521834,0.27680254 0.29510159,0.27601593 0.29501745,0.27521631 L 0.29804865,0.27361726 z" /></svg>
